<?xml version="1.0" encoding="utf-8" standalone="no"?>
<!DOCTYPE svg PUBLIC "-//W3C//DTD SVG 1.1//EN"
  "http://www.w3.org/Graphics/SVG/1.1/DTD/svg11.dtd">
<svg xmlns:xlink="http://www.w3.org/1999/xlink" width="720pt" height="720pt" viewBox="0 0 720 720" xmlns="http://www.w3.org/2000/svg" version="1.1">
 <metadata>
  <rdf:RDF xmlns:dc="http://purl.org/dc/elements/1.1/" xmlns:cc="http://creativecommons.org/ns#" xmlns:rdf="http://www.w3.org/1999/02/22-rdf-syntax-ns#">
   <cc:Work>
    <dc:type rdf:resource="http://purl.org/dc/dcmitype/StillImage"/>
    <dc:date>2022-06-12T15:08:26.837212</dc:date>
    <dc:format>image/svg+xml</dc:format>
    <dc:creator>
     <cc:Agent>
      <dc:title>Matplotlib v3.5.1, https://matplotlib.org/</dc:title>
     </cc:Agent>
    </dc:creator>
   </cc:Work>
  </rdf:RDF>
 </metadata>
 <defs>
  <style type="text/css">*{stroke-linejoin: round; stroke-linecap: butt}</style>
 </defs>
 <g id="figure_1">
  <g id="patch_1">
   <path d="M 0 720 
L 720 720 
L 720 0 
L 0 0 
z
" style="fill: #ffffff"/>
  </g>
  <g id="axes_1">
   <g id="patch_2">
    <path d="M 90 630 
L 648 630 
L 648 86.4 
L 90 86.4 
z
" style="fill: #ffffff"/>
   </g>
   <g id="matplotlib.axis_1">
    <g id="xtick_1">
     <g id="line2d_1">
      <path d="M 115.363636 630 
L 115.363636 86.4 
" clip-path="url(#pfa0efb0322)" style="fill: none; stroke: #cccccc; stroke-linecap: round"/>
     </g>
     <g id="text_1">
      <!-- 0 -->
      <g style="fill: #262626" transform="translate(112.305121 647.373594)scale(0.11 -0.11)">
       <defs>
        <path id="Arial-BoldMT-30" d="M 1756 4600 
Q 2422 4600 2797 4125 
Q 3244 3563 3244 2259 
Q 3244 959 2794 391 
Q 2422 -78 1756 -78 
Q 1088 -78 678 436 
Q 269 950 269 2269 
Q 269 3563 719 4131 
Q 1091 4600 1756 4600 
z
M 1756 3872 
Q 1597 3872 1472 3770 
Q 1347 3669 1278 3406 
Q 1188 3066 1188 2259 
Q 1188 1453 1269 1151 
Q 1350 850 1473 750 
Q 1597 650 1756 650 
Q 1916 650 2041 751 
Q 2166 853 2234 1116 
Q 2325 1453 2325 2259 
Q 2325 3066 2244 3367 
Q 2163 3669 2039 3770 
Q 1916 3872 1756 3872 
z
" transform="scale(0.015625)"/>
       </defs>
       <use xlink:href="#Arial-BoldMT-30"/>
      </g>
     </g>
    </g>
    <g id="xtick_2">
     <g id="line2d_2">
      <path d="M 216.919738 630 
L 216.919738 86.4 
" clip-path="url(#pfa0efb0322)" style="fill: none; stroke: #cccccc; stroke-linecap: round"/>
     </g>
     <g id="text_2">
      <!-- 200 -->
      <g style="fill: #262626" transform="translate(207.744191 647.373594)scale(0.11 -0.11)">
       <defs>
        <path id="Arial-BoldMT-32" d="M 3238 816 
L 3238 0 
L 159 0 
Q 209 463 459 877 
Q 709 1291 1447 1975 
Q 2041 2528 2175 2725 
Q 2356 2997 2356 3263 
Q 2356 3556 2198 3714 
Q 2041 3872 1763 3872 
Q 1488 3872 1325 3706 
Q 1163 3541 1138 3156 
L 263 3244 
Q 341 3969 753 4284 
Q 1166 4600 1784 4600 
Q 2463 4600 2850 4234 
Q 3238 3869 3238 3325 
Q 3238 3016 3127 2736 
Q 3016 2456 2775 2150 
Q 2616 1947 2200 1565 
Q 1784 1184 1673 1059 
Q 1563 934 1494 816 
L 3238 816 
z
" transform="scale(0.015625)"/>
       </defs>
       <use xlink:href="#Arial-BoldMT-32"/>
       <use xlink:href="#Arial-BoldMT-30" x="55.615234"/>
       <use xlink:href="#Arial-BoldMT-30" x="111.230469"/>
      </g>
     </g>
    </g>
    <g id="xtick_3">
     <g id="line2d_3">
      <path d="M 318.475839 630 
L 318.475839 86.4 
" clip-path="url(#pfa0efb0322)" style="fill: none; stroke: #cccccc; stroke-linecap: round"/>
     </g>
     <g id="text_3">
      <!-- 400 -->
      <g style="fill: #262626" transform="translate(309.300293 647.373594)scale(0.11 -0.11)">
       <defs>
        <path id="Arial-BoldMT-34" d="M 1994 0 
L 1994 922 
L 119 922 
L 119 1691 
L 2106 4600 
L 2844 4600 
L 2844 1694 
L 3413 1694 
L 3413 922 
L 2844 922 
L 2844 0 
L 1994 0 
z
M 1994 1694 
L 1994 3259 
L 941 1694 
L 1994 1694 
z
" transform="scale(0.015625)"/>
       </defs>
       <use xlink:href="#Arial-BoldMT-34"/>
       <use xlink:href="#Arial-BoldMT-30" x="55.615234"/>
       <use xlink:href="#Arial-BoldMT-30" x="111.230469"/>
      </g>
     </g>
    </g>
    <g id="xtick_4">
     <g id="line2d_4">
      <path d="M 420.031941 630 
L 420.031941 86.4 
" clip-path="url(#pfa0efb0322)" style="fill: none; stroke: #cccccc; stroke-linecap: round"/>
     </g>
     <g id="text_4">
      <!-- 600 -->
      <g style="fill: #262626" transform="translate(410.856394 647.373594)scale(0.11 -0.11)">
       <defs>
        <path id="Arial-BoldMT-36" d="M 3247 3459 
L 2397 3366 
Q 2366 3628 2234 3753 
Q 2103 3878 1894 3878 
Q 1616 3878 1423 3628 
Q 1231 3378 1181 2588 
Q 1509 2975 1997 2975 
Q 2547 2975 2939 2556 
Q 3331 2138 3331 1475 
Q 3331 772 2918 347 
Q 2506 -78 1859 -78 
Q 1166 -78 719 461 
Q 272 1000 272 2228 
Q 272 3488 737 4044 
Q 1203 4600 1947 4600 
Q 2469 4600 2811 4308 
Q 3153 4016 3247 3459 
z
M 1256 1544 
Q 1256 1116 1453 883 
Q 1650 650 1903 650 
Q 2147 650 2309 840 
Q 2472 1031 2472 1466 
Q 2472 1913 2297 2120 
Q 2122 2328 1859 2328 
Q 1606 2328 1431 2129 
Q 1256 1931 1256 1544 
z
" transform="scale(0.015625)"/>
       </defs>
       <use xlink:href="#Arial-BoldMT-36"/>
       <use xlink:href="#Arial-BoldMT-30" x="55.615234"/>
       <use xlink:href="#Arial-BoldMT-30" x="111.230469"/>
      </g>
     </g>
    </g>
    <g id="xtick_5">
     <g id="line2d_5">
      <path d="M 521.588043 630 
L 521.588043 86.4 
" clip-path="url(#pfa0efb0322)" style="fill: none; stroke: #cccccc; stroke-linecap: round"/>
     </g>
     <g id="text_5">
      <!-- 800 -->
      <g style="fill: #262626" transform="translate(512.412496 647.373594)scale(0.11 -0.11)">
       <defs>
        <path id="Arial-BoldMT-38" d="M 1025 2472 
Q 684 2616 529 2867 
Q 375 3119 375 3419 
Q 375 3931 733 4265 
Q 1091 4600 1750 4600 
Q 2403 4600 2764 4265 
Q 3125 3931 3125 3419 
Q 3125 3100 2959 2851 
Q 2794 2603 2494 2472 
Q 2875 2319 3073 2025 
Q 3272 1731 3272 1347 
Q 3272 713 2867 316 
Q 2463 -81 1791 -81 
Q 1166 -81 750 247 
Q 259 634 259 1309 
Q 259 1681 443 1992 
Q 628 2303 1025 2472 
z
M 1206 3356 
Q 1206 3094 1354 2947 
Q 1503 2800 1750 2800 
Q 2000 2800 2150 2948 
Q 2300 3097 2300 3359 
Q 2300 3606 2151 3754 
Q 2003 3903 1759 3903 
Q 1506 3903 1356 3753 
Q 1206 3603 1206 3356 
z
M 1125 1394 
Q 1125 1031 1311 828 
Q 1497 625 1775 625 
Q 2047 625 2225 820 
Q 2403 1016 2403 1384 
Q 2403 1706 2222 1901 
Q 2041 2097 1763 2097 
Q 1441 2097 1283 1875 
Q 1125 1653 1125 1394 
z
" transform="scale(0.015625)"/>
       </defs>
       <use xlink:href="#Arial-BoldMT-38"/>
       <use xlink:href="#Arial-BoldMT-30" x="55.615234"/>
       <use xlink:href="#Arial-BoldMT-30" x="111.230469"/>
      </g>
     </g>
    </g>
    <g id="xtick_6">
     <g id="line2d_6">
      <path d="M 623.144144 630 
L 623.144144 86.4 
" clip-path="url(#pfa0efb0322)" style="fill: none; stroke: #cccccc; stroke-linecap: round"/>
     </g>
     <g id="text_6">
      <!-- 1000 -->
      <g style="fill: #262626" transform="translate(610.910082 647.373594)scale(0.11 -0.11)">
       <defs>
        <path id="Arial-BoldMT-31" d="M 2519 0 
L 1641 0 
L 1641 3309 
Q 1159 2859 506 2644 
L 506 3441 
Q 850 3553 1253 3867 
Q 1656 4181 1806 4600 
L 2519 4600 
L 2519 0 
z
" transform="scale(0.015625)"/>
       </defs>
       <use xlink:href="#Arial-BoldMT-31"/>
       <use xlink:href="#Arial-BoldMT-30" x="55.615234"/>
       <use xlink:href="#Arial-BoldMT-30" x="111.230469"/>
       <use xlink:href="#Arial-BoldMT-30" x="166.845703"/>
      </g>
     </g>
    </g>
   </g>
   <g id="matplotlib.axis_2">
    <g id="ytick_1">
     <g id="line2d_7">
      <path d="M 90 564.354889 
L 648 564.354889 
" clip-path="url(#pfa0efb0322)" style="fill: none; stroke: #cccccc; stroke-linecap: round"/>
     </g>
     <g id="text_7">
      <!-- −60 -->
      <g style="fill: #262626" transform="translate(61.84125 568.291686)scale(0.11 -0.11)">
       <defs>
        <path id="Arial-BoldMT-2212" d="M 266 1850 
L 266 2672 
L 3469 2672 
L 3469 1850 
L 266 1850 
z
" transform="scale(0.015625)"/>
       </defs>
       <use xlink:href="#Arial-BoldMT-2212"/>
       <use xlink:href="#Arial-BoldMT-36" x="58.398438"/>
       <use xlink:href="#Arial-BoldMT-30" x="114.013672"/>
      </g>
     </g>
    </g>
    <g id="ytick_2">
     <g id="line2d_8">
      <path d="M 90 458.553515 
L 648 458.553515 
" clip-path="url(#pfa0efb0322)" style="fill: none; stroke: #cccccc; stroke-linecap: round"/>
     </g>
     <g id="text_8">
      <!-- −40 -->
      <g style="fill: #262626" transform="translate(61.84125 462.490312)scale(0.11 -0.11)">
       <use xlink:href="#Arial-BoldMT-2212"/>
       <use xlink:href="#Arial-BoldMT-34" x="58.398438"/>
       <use xlink:href="#Arial-BoldMT-30" x="114.013672"/>
      </g>
     </g>
    </g>
    <g id="ytick_3">
     <g id="line2d_9">
      <path d="M 90 352.75214 
L 648 352.75214 
" clip-path="url(#pfa0efb0322)" style="fill: none; stroke: #cccccc; stroke-linecap: round"/>
     </g>
     <g id="text_9">
      <!-- −20 -->
      <g style="fill: #262626" transform="translate(61.84125 356.688937)scale(0.11 -0.11)">
       <use xlink:href="#Arial-BoldMT-2212"/>
       <use xlink:href="#Arial-BoldMT-32" x="58.398438"/>
       <use xlink:href="#Arial-BoldMT-30" x="114.013672"/>
      </g>
     </g>
    </g>
    <g id="ytick_4">
     <g id="line2d_10">
      <path d="M 90 246.950766 
L 648 246.950766 
" clip-path="url(#pfa0efb0322)" style="fill: none; stroke: #cccccc; stroke-linecap: round"/>
     </g>
     <g id="text_10">
      <!-- 0 -->
      <g style="fill: #262626" transform="translate(74.382969 250.887563)scale(0.11 -0.11)">
       <use xlink:href="#Arial-BoldMT-30"/>
      </g>
     </g>
    </g>
    <g id="ytick_5">
     <g id="line2d_11">
      <path d="M 90 141.149392 
L 648 141.149392 
" clip-path="url(#pfa0efb0322)" style="fill: none; stroke: #cccccc; stroke-linecap: round"/>
     </g>
     <g id="text_11">
      <!-- 20 -->
      <g style="fill: #262626" transform="translate(68.265938 145.086189)scale(0.11 -0.11)">
       <use xlink:href="#Arial-BoldMT-32"/>
       <use xlink:href="#Arial-BoldMT-30" x="55.615234"/>
      </g>
     </g>
    </g>
   </g>
   <g id="line2d_12">
    <path d="M 115.363636 246.100435 
L 115.871417 261.082893 
L 116.379197 257.09114 
L 117.902539 235.785247 
L 118.410319 244.540045 
L 118.9181 234.656499 
L 119.42588 245.298958 
L 119.933661 252.582885 
L 120.441441 248.233551 
L 120.949222 255.2419 
L 121.457002 257.827092 
L 121.964783 255.321592 
L 122.472563 255.339333 
L 122.980344 251.989896 
L 123.488124 257.675981 
L 123.995905 259.102976 
L 124.503686 255.896875 
L 125.011466 255.957452 
L 125.519247 256.204341 
L 126.027027 238.825446 
L 126.534808 233.984375 
L 127.042588 236.625634 
L 127.550369 232.071844 
L 128.058149 235.585747 
L 128.56593 241.615881 
L 129.07371 243.952679 
L 129.581491 237.540955 
L 130.089271 233.018745 
L 130.597052 232.906695 
L 131.612613 225.076796 
L 132.120393 234.787006 
L 132.628174 235.986724 
L 133.135954 231.4655 
L 133.643735 229.018483 
L 134.151515 223.447792 
L 134.659296 212.673647 
L 135.167076 212.897952 
L 135.674857 208.257783 
L 136.182637 208.891309 
L 137.198198 211.889461 
L 138.72154 240.112181 
L 139.22932 241.67739 
L 139.737101 242.004006 
L 140.244881 245.747041 
L 140.752662 243.02676 
L 141.260442 239.228819 
L 141.768223 239.915043 
L 142.276003 247.917008 
L 142.783784 236.740583 
L 143.799345 237.464494 
L 144.307125 235.086883 
L 145.322686 243.33506 
L 145.830467 244.120007 
L 146.338247 244.290766 
L 146.846028 237.863604 
L 147.353808 235.116193 
L 147.861589 229.787691 
L 148.369369 228.634708 
L 148.87715 230.655052 
L 149.38493 230.852371 
L 149.892711 231.709797 
L 150.400491 231.091841 
L 150.908272 230.029372 
L 151.416052 238.530686 
L 151.923833 232.689787 
L 152.431613 233.306917 
L 152.939394 229.556433 
L 153.447174 233.748035 
L 153.954955 236.291672 
L 154.462735 247.161432 
L 154.970516 251.198358 
L 155.478296 257.467003 
L 155.986077 260.321269 
L 157.001638 250.533594 
L 157.509419 245.902882 
L 158.017199 235.536232 
L 158.52498 233.148229 
L 159.03276 226.171042 
L 159.540541 223.210886 
L 160.048321 221.607111 
L 160.556102 234.656452 
L 161.571663 231.688033 
L 162.079443 242.457329 
L 162.587224 246.914002 
L 163.095004 253.117091 
L 163.602785 241.787765 
L 164.110565 246.791585 
L 164.618346 241.991529 
L 165.126126 241.208411 
L 165.633907 241.727842 
L 166.141687 242.692168 
L 166.649468 241.723904 
L 167.157248 241.57107 
L 167.665029 237.906676 
L 168.172809 245.374979 
L 168.68059 242.166612 
L 169.18837 242.344482 
L 169.696151 251.964262 
L 170.203931 258.737267 
L 170.711712 258.728367 
L 171.219492 264.251106 
L 172.235053 267.924896 
L 172.742834 269.546232 
L 173.758395 257.862925 
L 174.266175 256.714907 
L 174.773956 244.886955 
L 175.281736 236.840339 
L 175.789517 231.718313 
L 176.297297 229.922508 
L 176.805078 237.78857 
L 177.312858 232.90137 
L 177.820639 229.155823 
L 178.328419 228.046381 
L 178.8362 230.54622 
L 179.34398 237.187816 
L 179.851761 239.45994 
L 180.359541 236.664782 
L 181.375102 222.451725 
L 181.882883 210.899856 
L 182.390663 211.826278 
L 182.898444 219.103832 
L 183.406224 214.39394 
L 183.914005 219.948173 
L 184.929566 203.513654 
L 185.437346 207.363188 
L 185.945127 213.173364 
L 186.452907 214.872722 
L 186.960688 210.702157 
L 187.468468 215.488901 
L 187.976249 223.199889 
L 188.484029 221.031024 
L 188.99181 225.247524 
L 189.49959 217.865761 
L 190.007371 226.655143 
L 190.515152 226.554406 
L 191.022932 226.807552 
L 191.530713 238.176568 
L 192.038493 230.04164 
L 192.546274 234.796355 
L 193.054054 230.604798 
L 193.561835 235.197147 
L 194.069615 236.55504 
L 194.577396 241.450367 
L 195.085176 241.577613 
L 195.592957 234.071958 
L 196.100737 229.435384 
L 196.608518 225.933148 
L 197.116298 230.324146 
L 197.624079 233.703793 
L 198.131859 227.188501 
L 198.63964 225.425732 
L 199.14742 226.429517 
L 199.655201 219.788334 
L 200.162981 220.912458 
L 200.670762 216.688994 
L 201.178542 207.6877 
L 201.686323 203.405847 
L 202.194103 206.745945 
L 202.701884 204.855641 
L 203.209664 203.705237 
L 203.717445 211.77642 
L 204.225225 205.852098 
L 204.733006 210.718103 
L 205.240786 210.011011 
L 205.748567 209.024731 
L 206.256347 227.16242 
L 206.764128 230.189066 
L 207.271908 226.674283 
L 207.779689 220.443671 
L 208.287469 220.682924 
L 209.30303 207.164223 
L 209.810811 205.223568 
L 210.318591 207.291629 
L 210.826372 211.776051 
L 211.334152 207.662099 
L 211.841933 207.150212 
L 212.349713 214.258719 
L 212.857494 213.87776 
L 213.365274 211.432299 
L 213.873055 207.782933 
L 214.380835 210.259618 
L 214.888616 210.168853 
L 215.904177 218.285999 
L 216.411957 208.297705 
L 216.919738 205.260541 
L 217.427518 202.920747 
L 217.935299 203.629964 
L 218.443079 200.215961 
L 218.95086 205.240762 
L 219.45864 200.772908 
L 219.966421 201.631796 
L 220.474201 208.446658 
L 220.981982 198.842584 
L 221.997543 189.700749 
L 222.505324 183.095958 
L 223.013104 182.633634 
L 223.520885 179.45792 
L 224.028665 189.447706 
L 224.536446 180.69823 
L 225.044226 182.898821 
L 225.552007 193.819971 
L 226.059787 191.473882 
L 226.567568 191.41535 
L 227.075348 193.740902 
L 227.583129 193.759434 
L 228.090909 196.986291 
L 228.59869 198.559809 
L 229.10647 196.756099 
L 229.614251 194.351007 
L 230.122031 189.453188 
L 230.629812 188.180902 
L 231.137592 182.474913 
L 231.645373 191.719901 
L 232.153153 190.972698 
L 232.660934 190.744348 
L 233.168714 193.038675 
L 233.676495 183.566205 
L 234.184275 187.624184 
L 234.692056 194.522 
L 235.199836 195.610444 
L 236.215397 185.391243 
L 236.723178 184.319429 
L 237.230958 184.330744 
L 237.738739 183.784573 
L 238.246519 185.254319 
L 238.7543 188.832293 
L 239.26208 184.061408 
L 239.769861 184.100606 
L 240.785422 183.390994 
L 241.293202 196.576223 
L 241.800983 202.495654 
L 242.308763 205.446621 
L 242.816544 199.054873 
L 243.324324 196.447921 
L 243.832105 188.726538 
L 244.339885 190.028863 
L 244.847666 181.629853 
L 245.355446 185.880269 
L 245.863227 185.106937 
L 246.371007 178.379799 
L 246.878788 169.849328 
L 247.386568 166.174145 
L 247.894349 165.96523 
L 248.402129 168.740695 
L 248.90991 164.139679 
L 249.925471 176.590499 
L 250.433251 173.465058 
L 250.941032 178.394761 
L 251.448812 180.765376 
L 251.956593 175.844913 
L 252.464373 179.669863 
L 252.972154 176.470483 
L 253.479934 176.874719 
L 253.987715 184.408124 
L 254.495495 180.81453 
L 255.003276 178.32828 
L 256.018837 189.912508 
L 256.526618 179.386812 
L 257.034398 177.017107 
L 257.542179 173.531464 
L 258.049959 178.836036 
L 258.55774 181.759485 
L 259.06552 179.850583 
L 259.573301 180.807795 
L 260.081081 170.527687 
L 260.588862 168.881209 
L 261.096642 169.459791 
L 262.112203 182.175935 
L 262.619984 180.828291 
L 263.127764 181.261743 
L 263.635545 180.549604 
L 264.143325 183.847579 
L 264.651106 178.875328 
L 265.158886 182.003535 
L 265.666667 177.838347 
L 266.174447 193.086004 
L 266.682228 195.195059 
L 267.190008 185.131151 
L 267.697789 182.088987 
L 268.205569 183.392414 
L 268.71335 186.66847 
L 269.22113 188.883299 
L 269.728911 185.19339 
L 270.236691 191.648452 
L 271.252252 181.32432 
L 271.760033 182.207076 
L 272.267813 176.300001 
L 273.283374 182.36431 
L 273.791155 180.155268 
L 274.298935 180.353128 
L 274.806716 183.072677 
L 275.314496 177.728708 
L 275.822277 178.709017 
L 276.330057 164.44681 
L 276.837838 173.305924 
L 277.345618 168.308107 
L 277.853399 160.44572 
L 278.361179 155.290764 
L 278.86896 159.329596 
L 279.37674 161.822254 
L 279.884521 161.671199 
L 280.392301 171.004526 
L 280.900082 171.925903 
L 281.407862 171.966997 
L 281.915643 184.497678 
L 282.423423 177.59199 
L 283.438984 152.522506 
L 283.946765 158.117565 
L 284.454545 151.444444 
L 284.962326 163.447163 
L 285.470106 167.101655 
L 285.977887 163.065226 
L 286.485667 173.414112 
L 286.993448 171.178607 
L 287.501229 167.789409 
L 288.009009 167.274501 
L 288.51679 180.171286 
L 289.02457 181.466916 
L 289.532351 185.000423 
L 290.040131 185.384209 
L 290.547912 187.605402 
L 291.055692 183.663004 
L 291.563473 180.931731 
L 292.071253 184.370666 
L 292.579034 183.908293 
L 293.086814 188.682621 
L 293.594595 184.161961 
L 294.102375 187.238192 
L 294.610156 186.469838 
L 295.117936 186.726313 
L 295.625717 194.099163 
L 296.133497 198.489376 
L 296.641278 195.740948 
L 297.149058 189.917449 
L 297.656839 191.637048 
L 298.6724 173.763198 
L 299.18018 174.417944 
L 299.687961 185.93032 
L 300.195741 187.910977 
L 300.703522 184.01059 
L 301.211302 187.699754 
L 301.719083 189.356393 
L 302.734644 185.133808 
L 303.242424 184.580673 
L 303.750205 182.276306 
L 304.257985 183.92957 
L 304.765766 183.916341 
L 305.781327 176.329606 
L 306.289107 183.911803 
L 306.796888 197.336738 
L 307.304668 203.545995 
L 307.812449 200.749062 
L 308.320229 200.95083 
L 309.33579 186.613275 
L 309.843571 202.619567 
L 310.351351 201.988912 
L 310.859132 204.372406 
L 311.366912 195.193331 
L 311.874693 193.909765 
L 312.382473 191.199584 
L 312.890254 185.804832 
L 313.398034 190.253816 
L 313.905815 188.663486 
L 314.921376 197.183357 
L 315.429156 212.428742 
L 315.936937 221.715834 
L 316.444717 226.366167 
L 316.952498 224.099933 
L 317.968059 226.907043 
L 318.475839 226.580506 
L 318.98362 227.967171 
L 319.4914 234.15406 
L 319.999181 234.461418 
L 321.014742 240.696885 
L 321.522523 244.526923 
L 322.538084 230.441521 
L 323.045864 233.766238 
L 323.553645 236.27354 
L 324.061425 223.905629 
L 324.569206 233.264686 
L 325.076986 228.039415 
L 325.584767 227.929779 
L 326.092547 225.308585 
L 326.600328 221.095678 
L 327.108108 222.974691 
L 328.123669 246.243991 
L 328.63145 250.538294 
L 329.13923 249.48472 
L 329.647011 256.724026 
L 330.154791 269.003519 
L 330.662572 274.331902 
L 331.170352 277.043499 
L 331.678133 275.279554 
L 332.185913 270.981939 
L 332.693694 280.663683 
L 333.201474 280.042812 
L 333.709255 275.357949 
L 334.217035 282.611782 
L 334.724816 282.799137 
L 335.232596 285.712032 
L 335.740377 292.043729 
L 336.248157 294.834183 
L 336.755938 291.280169 
L 337.263718 278.93892 
L 337.771499 281.18083 
L 338.279279 285.054791 
L 338.78706 276.701885 
L 339.29484 274.698633 
L 339.802621 277.03932 
L 340.310401 273.656429 
L 340.818182 267.50901 
L 341.325962 268.373138 
L 341.833743 268.624234 
L 342.341523 267.999718 
L 342.849304 261.64112 
L 343.357084 272.459847 
L 343.864865 277.010503 
L 344.372645 274.384262 
L 344.880426 274.192111 
L 345.388206 274.787247 
L 345.895987 271.350817 
L 346.403767 266.953062 
L 346.911548 265.749752 
L 347.419328 263.455598 
L 347.927109 267.966622 
L 348.434889 274.727376 
L 348.94267 274.225288 
L 349.45045 275.333599 
L 349.958231 271.952495 
L 350.466011 267.682777 
L 350.973792 274.204872 
L 351.481572 276.025524 
L 351.989353 273.497139 
L 353.004914 296.209514 
L 353.512695 301.305188 
L 354.020475 299.585057 
L 355.036036 294.964977 
L 355.543817 289.356705 
L 356.051597 289.45187 
L 356.559378 277.835287 
L 357.067158 279.579001 
L 357.574939 286.122354 
L 358.082719 285.436016 
L 358.5905 282.42183 
L 359.09828 278.538367 
L 359.606061 283.088774 
L 360.113841 277.650097 
L 360.621622 276.667183 
L 361.129402 271.687934 
L 361.637183 267.832444 
L 362.144963 267.233761 
L 363.160524 249.867621 
L 363.668305 256.070112 
L 364.683866 243.386708 
L 365.699427 252.741713 
L 366.207207 250.60205 
L 366.714988 253.530687 
L 367.222768 252.766271 
L 367.730549 266.493815 
L 368.238329 265.867131 
L 368.74611 266.382027 
L 369.25389 269.552887 
L 369.761671 266.53442 
L 370.269451 265.479493 
L 370.777232 265.250625 
L 371.285012 272.308604 
L 371.792793 275.864526 
L 372.300573 274.458881 
L 372.808354 274.178303 
L 373.316134 273.615252 
L 373.823915 279.792767 
L 374.331695 281.295872 
L 375.347256 288.426244 
L 375.855037 285.047454 
L 376.362817 293.423527 
L 376.870598 289.340212 
L 377.378378 286.291649 
L 377.886159 294.734467 
L 378.393939 294.352626 
L 378.90172 297.285084 
L 379.4095 294.598354 
L 379.917281 290.403203 
L 380.425061 292.93788 
L 380.932842 288.09663 
L 381.440622 284.954212 
L 381.948403 277.397543 
L 382.456183 278.233466 
L 382.963964 287.465195 
L 383.471744 287.319442 
L 383.979525 288.67237 
L 384.487305 299.010371 
L 384.995086 299.316403 
L 385.502867 292.347748 
L 386.010647 282.935519 
L 386.518428 285.271773 
L 387.026208 290.904429 
L 387.533989 292.114938 
L 388.041769 290.779744 
L 388.54955 292.018161 
L 389.565111 282.389383 
L 390.072891 281.188789 
L 390.580672 282.927662 
L 391.088452 286.054743 
L 391.596233 276.273124 
L 392.104013 270.267477 
L 392.611794 261.261121 
L 393.119574 259.246541 
L 393.627355 266.017943 
L 394.135135 264.120154 
L 394.642916 261.767083 
L 395.150696 257.07809 
L 395.658477 261.72041 
L 396.166257 261.890593 
L 396.674038 255.07165 
L 397.181818 256.208637 
L 397.689599 256.501797 
L 398.197379 257.47785 
L 399.21294 250.517144 
L 399.720721 251.366296 
L 400.228501 250.703461 
L 400.736282 253.574544 
L 401.244062 251.906857 
L 401.751843 251.617288 
L 402.259623 247.579443 
L 402.767404 246.60096 
L 403.782965 235.092247 
L 404.290745 241.141874 
L 404.798526 241.069056 
L 405.306306 247.810116 
L 405.814087 244.453034 
L 406.321867 252.182616 
L 406.829648 248.785307 
L 407.337428 253.189612 
L 407.845209 251.781258 
L 408.352989 254.27263 
L 408.86077 260.666562 
L 409.36855 263.44733 
L 409.876331 266.891299 
L 410.384111 267.21866 
L 410.891892 271.209429 
L 411.399672 272.802768 
L 411.907453 269.433455 
L 412.415233 264.610467 
L 412.923014 264.576426 
L 413.430794 272.9954 
L 413.938575 271.238977 
L 414.446355 266.961968 
L 414.954136 265.866835 
L 415.461916 265.468002 
L 415.969697 266.614259 
L 416.477477 260.924275 
L 416.985258 262.783844 
L 417.493038 267.35536 
L 418.000819 262.701934 
L 418.5086 261.288166 
L 419.01638 267.743787 
L 419.524161 271.718184 
L 420.031941 273.47863 
L 420.539722 273.327654 
L 421.047502 277.927306 
L 421.555283 273.145505 
L 422.063063 274.263747 
L 422.570844 270.844301 
L 423.078624 271.565264 
L 423.586405 279.218271 
L 424.094185 281.197516 
L 424.601966 287.288155 
L 425.109746 279.958608 
L 425.617527 277.94359 
L 426.633088 285.032968 
L 427.648649 275.293883 
L 428.156429 278.32808 
L 428.66421 275.122812 
L 429.17199 283.181257 
L 429.679771 280.238218 
L 430.187551 282.230123 
L 430.695332 278.129009 
L 431.203112 280.756113 
L 431.710893 278.776484 
L 432.218673 272.862051 
L 432.726454 268.62099 
L 433.234234 269.244765 
L 433.742015 268.696938 
L 434.249795 258.975266 
L 434.757576 254.951845 
L 435.773137 259.28071 
L 436.280917 257.361308 
L 436.788698 265.496673 
L 437.296478 263.636467 
L 437.804259 259.207492 
L 438.312039 259.481551 
L 439.3276 248.686115 
L 439.835381 247.328164 
L 440.343161 242.895748 
L 440.850942 235.527248 
L 441.358722 225.571554 
L 442.374283 234.662738 
L 442.882064 229.960351 
L 443.389844 220.640159 
L 443.897625 220.654612 
L 444.405405 223.200326 
L 444.913186 219.669227 
L 445.420966 221.022202 
L 445.928747 218.412318 
L 446.436527 219.734619 
L 446.944308 223.818318 
L 447.452088 212.113725 
L 447.959869 206.34183 
L 448.467649 204.416944 
L 448.97543 206.891485 
L 449.48321 213.034254 
L 449.990991 205.98656 
L 450.498771 217.286472 
L 451.006552 219.060476 
L 451.514333 216.100305 
L 452.022113 218.129074 
L 452.529894 218.609178 
L 453.037674 216.465421 
L 453.545455 221.424252 
L 454.053235 210.598412 
L 454.561016 214.903653 
L 455.068796 215.77268 
L 455.576577 211.764523 
L 456.084357 213.096723 
L 456.592138 211.044715 
L 457.099918 206.911738 
L 457.607699 206.019202 
L 458.115479 207.805309 
L 458.62326 199.729495 
L 459.13104 188.642605 
L 459.638821 187.862673 
L 460.146601 185.138577 
L 460.654382 184.795018 
L 461.162162 187.238521 
L 461.669943 183.409672 
L 462.177723 187.347711 
L 462.685504 180.771232 
L 463.193284 177.462426 
L 463.701065 180.123571 
L 464.208845 179.113364 
L 464.716626 164.457913 
L 465.224406 165.609099 
L 465.732187 165.583395 
L 466.239967 166.582697 
L 466.747748 171.087987 
L 467.255528 172.762243 
L 467.763309 177.398072 
L 468.271089 178.090623 
L 468.77887 183.808177 
L 469.28665 180.816356 
L 469.794431 190.127815 
L 470.302211 195.270607 
L 470.809992 187.259236 
L 471.317772 205.198382 
L 471.825553 203.260597 
L 472.333333 197.960008 
L 472.841114 190.137789 
L 473.348894 179.887571 
L 473.856675 178.548226 
L 474.364455 185.695831 
L 474.872236 183.702912 
L 475.380016 185.729104 
L 475.887797 182.486836 
L 476.395577 181.553172 
L 476.903358 181.946388 
L 477.411138 174.847672 
L 477.918919 177.636166 
L 478.426699 182.011487 
L 478.93448 173.159683 
L 479.44226 174.266481 
L 480.457821 183.494169 
L 480.965602 181.590921 
L 481.473382 184.004252 
L 481.981163 191.821725 
L 482.488943 188.448034 
L 482.996724 190.920147 
L 483.504505 189.214212 
L 484.012285 182.832825 
L 484.520066 179.44489 
L 485.027846 177.530777 
L 485.535627 178.476889 
L 486.043407 183.384127 
L 486.551188 174.841898 
L 487.058968 171.884542 
L 487.566749 171.818202 
L 488.074529 169.288683 
L 488.58231 170.990745 
L 489.09009 173.647007 
L 489.597871 172.770108 
L 490.105651 171.316887 
L 490.613432 174.044722 
L 491.121212 171.508275 
L 491.628993 173.976336 
L 492.136773 167.184205 
L 492.644554 168.837124 
L 493.152334 180.576228 
L 494.167895 164.053283 
L 495.183456 163.670694 
L 495.691237 155.140512 
L 496.199017 155.616436 
L 496.706798 156.720258 
L 497.214578 156.684668 
L 497.722359 149.206598 
L 498.230139 150.170261 
L 498.73792 144.551426 
L 499.2457 158.478657 
L 499.753481 157.239678 
L 500.261261 163.654768 
L 500.769042 155.414209 
L 501.784603 161.692131 
L 502.292383 158.295971 
L 502.800164 161.300167 
L 503.307944 157.928074 
L 503.815725 149.013112 
L 504.323505 147.966378 
L 504.831286 143.633982 
L 505.339066 153.460527 
L 506.354627 147.2143 
L 506.862408 150.641569 
L 507.370188 146.558388 
L 507.877969 146.06843 
L 508.89353 139.925492 
L 509.40131 141.816278 
L 509.909091 138.271684 
L 510.416871 136.442206 
L 511.432432 151.670039 
L 511.940213 148.433573 
L 512.447993 149.86441 
L 512.955774 149.10544 
L 513.463554 150.37004 
L 514.479115 155.765257 
L 514.986896 153.28266 
L 515.494676 155.811457 
L 516.002457 154.490666 
L 516.510238 145.195898 
L 517.018018 148.071382 
L 517.525799 142.928784 
L 518.033579 151.425291 
L 518.54136 156.699638 
L 519.04914 152.037834 
L 519.556921 162.831036 
L 520.064701 170.441315 
L 520.572482 168.795936 
L 521.080262 157.526753 
L 521.588043 155.447781 
L 522.095823 157.692296 
L 522.603604 152.241246 
L 523.111384 154.360248 
L 523.619165 146.586474 
L 524.126945 159.979588 
L 524.634726 165.534335 
L 525.142506 168.872335 
L 525.650287 168.980023 
L 526.158067 167.999271 
L 526.665848 167.793727 
L 527.173628 162.835304 
L 528.69697 157.71851 
L 529.20475 158.196252 
L 529.712531 154.704003 
L 530.220311 155.763084 
L 530.728092 160.351156 
L 531.235872 157.508436 
L 531.743653 161.957783 
L 532.251433 164.012738 
L 532.759214 163.103248 
L 533.774775 171.881931 
L 534.282555 173.171248 
L 534.790336 173.31366 
L 535.298116 179.049003 
L 535.805897 170.438771 
L 536.313677 181.862538 
L 536.821458 181.486696 
L 537.329238 187.699205 
L 537.837019 182.825786 
L 538.344799 179.527384 
L 538.85258 179.241599 
L 539.36036 183.130835 
L 539.868141 181.820188 
L 540.375921 173.32963 
L 540.883702 179.409967 
L 541.391482 188.186081 
L 541.899263 188.097331 
L 542.407043 185.06423 
L 542.914824 187.83935 
L 543.422604 188.812593 
L 543.930385 187.671893 
L 544.438165 196.952209 
L 544.945946 192.577723 
L 545.453726 199.534338 
L 545.961507 197.385622 
L 546.977068 187.135126 
L 547.484848 193.035871 
L 547.992629 196.520053 
L 548.50041 195.356299 
L 549.515971 193.717228 
L 550.023751 185.413383 
L 550.531532 200.962396 
L 551.039312 190.180617 
L 551.547093 186.839541 
L 552.054873 189.900415 
L 552.562654 182.650153 
L 553.070434 181.04968 
L 553.578215 176.339634 
L 554.085995 178.800917 
L 554.593776 176.336851 
L 555.101556 175.31581 
L 555.609337 172.608209 
L 556.117117 168.412939 
L 556.624898 163.030534 
L 557.132678 163.646115 
L 557.640459 169.290229 
L 558.148239 171.296023 
L 558.65602 172.360045 
L 559.1638 170.867797 
L 559.671581 175.904597 
L 560.179361 174.15395 
L 560.687142 165.58366 
L 561.194922 163.830835 
L 561.702703 157.08397 
L 562.210483 155.922965 
L 562.718264 152.64962 
L 563.226044 158.190489 
L 563.733825 160.621415 
L 564.241605 155.240688 
L 564.749386 152.996114 
L 565.257166 148.731929 
L 565.764947 151.307842 
L 566.272727 153.277618 
L 566.780508 154.028678 
L 567.288288 138.839957 
L 567.796069 139.439931 
L 568.303849 138.62213 
L 568.81163 140.945158 
L 569.31941 135.054072 
L 569.827191 125.778168 
L 570.334971 127.744595 
L 570.842752 128.191737 
L 571.350532 134.402481 
L 571.858313 134.203686 
L 572.366093 135.79098 
L 572.873874 133.61851 
L 573.381654 137.629524 
L 573.889435 136.60058 
L 574.397215 126.875937 
L 574.904996 120.86662 
L 575.412776 125.565742 
L 575.920557 125.516116 
L 576.428337 119.871167 
L 576.936118 123.993409 
L 577.443898 123.08425 
L 577.951679 115.571148 
L 578.459459 117.348777 
L 578.96724 126.008897 
L 579.47502 126.273417 
L 579.982801 128.251448 
L 580.490581 121.698657 
L 580.998362 127.48393 
L 581.506143 122.560351 
L 582.013923 114.798089 
L 582.521704 114.799222 
L 583.029484 114.61057 
L 583.537265 116.531851 
L 584.045045 119.981971 
L 584.552826 116.005684 
L 585.060606 116.392555 
L 586.076167 111.109091 
L 586.583948 113.64253 
L 587.091728 113.040955 
L 587.599509 122.66684 
L 588.107289 118.950105 
L 588.61507 126.21552 
L 589.12285 123.373733 
L 589.630631 126.645243 
L 590.138411 126.353301 
L 590.646192 123.403352 
L 591.153972 123.155622 
L 591.661753 129.546189 
L 592.169533 129.969539 
L 592.677314 133.173858 
L 593.692875 144.397962 
L 594.200655 156.821315 
L 595.216216 151.298081 
L 595.723997 152.092576 
L 596.231777 162.203151 
L 597.247338 166.271931 
L 597.755119 163.835228 
L 598.262899 170.536019 
L 598.77068 170.132148 
L 599.27846 163.417431 
L 599.786241 171.213373 
L 600.294021 167.062289 
L 600.801802 157.850478 
L 601.309582 151.074566 
L 601.817363 142.316616 
L 602.325143 148.951865 
L 602.832924 142.570119 
L 603.340704 143.847431 
L 603.848485 140.597792 
L 604.356265 144.06178 
L 604.864046 134.066882 
L 605.371826 130.121195 
L 605.879607 122.575698 
L 606.387387 120.277667 
L 607.402948 126.397105 
L 607.910729 134.641431 
L 608.418509 136.78711 
L 608.92629 137.016798 
L 609.43407 140.138947 
L 609.941851 129.894646 
L 610.449631 140.915286 
L 610.957412 134.920121 
L 611.465192 134.866453 
L 611.972973 139.29738 
L 612.480753 135.998753 
L 612.988534 130.844528 
L 613.496314 132.597542 
L 614.004095 122.574722 
L 614.511876 125.054206 
L 615.019656 114.725032 
L 615.527437 115.078023 
L 616.035217 121.808202 
L 616.542998 120.751816 
L 617.050778 120.298615 
L 617.558559 118.846091 
L 618.066339 118.026571 
L 618.57412 123.245541 
L 619.0819 130.335608 
L 619.589681 132.728909 
L 620.097461 127.798135 
L 621.113022 139.371739 
L 621.620803 141.637063 
L 622.128583 140.893713 
L 622.636364 142.857789 
L 622.636364 142.857789 
" clip-path="url(#pfa0efb0322)" style="fill: none; stroke: #0000ff; stroke-width: 1.5; stroke-linecap: round"/>
   </g>
   <g id="line2d_13">
    <path d="M 115.363636 245.193939 
L 115.871417 248.336483 
L 116.379197 244.422046 
L 116.886978 254.152337 
L 117.394758 254.097184 
L 117.902539 255.337758 
L 118.410319 246.051859 
L 118.9181 246.022517 
L 119.42588 241.956206 
L 119.933661 244.415102 
L 120.441441 252.312327 
L 120.949222 250.69659 
L 121.457002 257.652615 
L 121.964783 262.465006 
L 122.472563 263.472275 
L 122.980344 270.781502 
L 123.488124 268.73175 
L 123.995905 274.478726 
L 124.503686 276.816734 
L 125.011466 273.257509 
L 125.519247 268.904987 
L 126.027027 270.979905 
L 126.534808 265.530413 
L 127.042588 271.442065 
L 127.550369 272.43237 
L 128.058149 274.182835 
L 128.56593 273.370253 
L 129.07371 280.652323 
L 129.581491 289.801326 
L 130.089271 291.575879 
L 130.597052 296.42586 
L 131.104832 294.53004 
L 131.612613 293.977954 
L 132.120393 283.516145 
L 132.628174 289.824866 
L 133.135954 301.809238 
L 133.643735 306.077072 
L 134.151515 307.20727 
L 134.659296 306.067217 
L 135.167076 315.60205 
L 135.674857 315.18053 
L 136.182637 322.85596 
L 136.690418 321.621158 
L 137.705979 310.356856 
L 138.213759 308.513005 
L 138.72154 307.299271 
L 139.22932 317.806753 
L 139.737101 316.050746 
L 140.244881 326.38206 
L 140.752662 327.46313 
L 141.260442 323.227069 
L 141.768223 323.975812 
L 142.276003 329.858609 
L 142.783784 329.792329 
L 143.291564 333.007711 
L 144.307125 344.317081 
L 144.814906 338.176744 
L 145.322686 335.094313 
L 146.338247 327.464307 
L 146.846028 332.77394 
L 147.353808 339.746754 
L 147.861589 340.22296 
L 148.369369 335.406077 
L 148.87715 325.53379 
L 149.38493 328.442409 
L 149.892711 315.237215 
L 150.400491 323.99966 
L 150.908272 309.488776 
L 151.416052 308.757332 
L 151.923833 300.314278 
L 152.431613 294.026639 
L 152.939394 293.973397 
L 153.447174 296.279072 
L 153.954955 298.001221 
L 154.462735 305.080427 
L 154.970516 305.456193 
L 155.478296 307.844004 
L 155.986077 306.462321 
L 156.493857 305.725266 
L 157.001638 311.438341 
L 158.52498 322.616458 
L 159.03276 316.413107 
L 159.540541 316.647171 
L 160.048321 314.566916 
L 160.556102 315.097421 
L 161.063882 310.884847 
L 161.571663 312.361832 
L 162.079443 316.964816 
L 162.587224 316.373599 
L 163.095004 331.740551 
L 163.602785 332.732513 
L 164.110565 329.964075 
L 164.618346 338.669913 
L 165.126126 344.562246 
L 165.633907 341.784859 
L 166.141687 345.498541 
L 166.649468 338.921624 
L 167.157248 338.876855 
L 167.665029 329.267921 
L 168.172809 328.942145 
L 168.68059 325.849212 
L 169.18837 326.408851 
L 170.203931 312.922851 
L 170.711712 311.673193 
L 171.219492 322.524072 
L 171.727273 319.060619 
L 172.742834 307.568593 
L 173.250614 311.49293 
L 173.758395 312.919333 
L 174.266175 311.955296 
L 174.773956 307.379303 
L 175.281736 314.139813 
L 175.789517 317.934367 
L 176.297297 319.607873 
L 176.805078 326.717244 
L 177.312858 327.786886 
L 178.328419 341.63683 
L 178.8362 340.392402 
L 179.34398 337.458165 
L 179.851761 337.415271 
L 180.359541 334.901333 
L 180.867322 342.621221 
L 181.375102 340.653135 
L 181.882883 335.889163 
L 182.390663 340.517383 
L 182.898444 337.696763 
L 183.406224 342.268048 
L 183.914005 351.268895 
L 184.421785 346.992186 
L 184.929566 344.764482 
L 185.437346 347.542642 
L 186.452907 341.917643 
L 186.960688 343.264143 
L 187.468468 346.484283 
L 187.976249 346.414237 
L 188.99181 362.584251 
L 189.49959 358.358446 
L 190.007371 360.050865 
L 190.515152 368.767528 
L 191.022932 367.466721 
L 191.530713 362.770693 
L 192.038493 362.159527 
L 192.546274 359.552027 
L 193.561835 356.857123 
L 194.069615 357.654552 
L 194.577396 347.799414 
L 195.085176 353.134544 
L 196.100737 342.587857 
L 196.608518 343.581221 
L 197.116298 339.097308 
L 197.624079 337.978951 
L 198.131859 346.263126 
L 198.63964 343.835456 
L 199.14742 342.247456 
L 199.655201 330.750206 
L 200.162981 329.251767 
L 200.670762 331.193008 
L 201.178542 336.926544 
L 201.686323 331.061778 
L 202.194103 329.857079 
L 202.701884 325.653597 
L 203.209664 333.809684 
L 203.717445 329.908372 
L 204.225225 327.66105 
L 204.733006 332.359971 
L 205.240786 325.522819 
L 205.748567 338.796684 
L 207.271908 353.597167 
L 207.779689 350.779723 
L 208.287469 353.650947 
L 208.79525 366.974182 
L 209.30303 372.239198 
L 209.810811 370.393492 
L 210.318591 370.934859 
L 210.826372 372.245954 
L 211.334152 375.201384 
L 211.841933 379.246025 
L 212.857494 371.477912 
L 213.365274 375.287119 
L 213.873055 373.678597 
L 214.380835 380.873581 
L 214.888616 380.631293 
L 215.396396 381.338339 
L 216.411957 383.36368 
L 216.919738 382.991768 
L 217.427518 397.317612 
L 217.935299 399.133954 
L 218.443079 407.432928 
L 218.95086 410.058849 
L 219.45864 413.978929 
L 219.966421 416.791004 
L 220.474201 421.76215 
L 220.981982 409.527554 
L 221.489762 416.532057 
L 221.997543 414.946154 
L 222.505324 417.594316 
L 223.013104 414.681572 
L 223.520885 413.755805 
L 224.028665 414.593305 
L 224.536446 414.841384 
L 225.044226 411.701738 
L 225.552007 417.169029 
L 226.059787 420.550498 
L 227.075348 438.409506 
L 227.583129 434.305562 
L 228.090909 443.912144 
L 228.59869 435.756453 
L 229.10647 435.844602 
L 229.614251 425.378091 
L 230.122031 427.394984 
L 230.629812 432.219091 
L 231.137592 435.2426 
L 231.645373 444.098419 
L 232.153153 446.268268 
L 232.660934 456.31681 
L 233.676495 469.227474 
L 234.692056 473.841736 
L 235.199836 478.589822 
L 235.707617 477.667542 
L 236.723178 484.605951 
L 237.230958 479.872411 
L 237.738739 486.292668 
L 238.246519 487.649635 
L 238.7543 496.21016 
L 239.769861 517.017052 
L 240.277641 521.192563 
L 240.785422 518.324471 
L 241.293202 525.999797 
L 241.800983 523.401036 
L 242.308763 526.033015 
L 242.816544 525.283078 
L 243.324324 511.415767 
L 243.832105 511.165243 
L 244.339885 514.154512 
L 244.847666 516.089087 
L 246.371007 533.947756 
L 246.878788 536.109209 
L 247.894349 542.370925 
L 248.402129 546.359044 
L 248.90991 538.882299 
L 249.41769 539.811412 
L 249.925471 536.829255 
L 250.433251 523.478254 
L 250.941032 525.378181 
L 251.956593 509.126961 
L 252.464373 507.039156 
L 252.972154 516.580794 
L 253.479934 515.753252 
L 253.987715 522.890414 
L 254.495495 515.790835 
L 255.003276 518.216848 
L 255.511057 513.476863 
L 256.018837 516.878415 
L 256.526618 511.657074 
L 257.034398 500.748668 
L 257.542179 497.747267 
L 258.049959 498.6769 
L 258.55774 506.315383 
L 259.06552 506.544483 
L 259.573301 510.148051 
L 260.081081 511.512395 
L 260.588862 510.393079 
L 261.604423 500.915763 
L 262.619984 518.090808 
L 263.127764 514.27076 
L 263.635545 512.657351 
L 264.143325 521.677315 
L 264.651106 524.083229 
L 265.158886 521.996144 
L 266.174447 528.991664 
L 266.682228 523.026477 
L 267.190008 519.294194 
L 267.697789 519.360635 
L 268.205569 518.734736 
L 268.71335 513.404056 
L 269.22113 518.56012 
L 269.728911 512.310969 
L 270.236691 512.2262 
L 270.744472 511.976586 
L 271.252252 511.536387 
L 271.760033 512.656023 
L 272.267813 520.289756 
L 272.775594 512.071335 
L 273.283374 515.782764 
L 273.791155 513.071617 
L 274.298935 518.638102 
L 274.806716 515.970577 
L 275.314496 505.267475 
L 275.822277 512.304194 
L 276.330057 509.487633 
L 276.837838 507.511217 
L 277.345618 506.686688 
L 277.853399 517.919382 
L 278.361179 522.459007 
L 278.86896 535.121268 
L 279.37674 529.829394 
L 279.884521 531.393892 
L 280.392301 525.742583 
L 280.900082 525.192421 
L 281.407862 522.79182 
L 282.423423 519.66847 
L 282.931204 523.017592 
L 283.438984 528.432926 
L 283.946765 526.990467 
L 284.454545 523.621581 
L 284.962326 525.688161 
L 285.470106 520.220913 
L 285.977887 535.003737 
L 286.485667 535.623177 
L 286.993448 545.944613 
L 287.501229 547.946605 
L 288.009009 552.44731 
L 288.51679 554.865915 
L 289.02457 559.68542 
L 289.532351 559.141349 
L 290.040131 558.819547 
L 290.547912 561.20839 
L 291.055692 565.331423 
L 291.563473 562.286429 
L 292.071253 571.581024 
L 292.579034 555.371932 
L 293.086814 557.63559 
L 293.594595 558.796748 
L 294.102375 557.103374 
L 294.610156 567.27345 
L 295.117936 566.325442 
L 295.625717 567.882183 
L 296.133497 575.920063 
L 297.149058 583.538236 
L 297.656839 583.383316 
L 298.164619 578.033437 
L 298.6724 576.816434 
L 299.18018 576.440665 
L 300.195741 569.284362 
L 300.703522 570.466646 
L 301.211302 575.374514 
L 301.719083 573.536959 
L 302.226863 572.303215 
L 303.242424 567.865071 
L 303.750205 567.936571 
L 304.257985 569.18807 
L 304.765766 572.747758 
L 305.273546 561.501475 
L 305.781327 561.216498 
L 306.289107 559.515476 
L 306.796888 558.396599 
L 307.304668 554.121625 
L 307.812449 551.397102 
L 308.320229 551.391049 
L 308.82801 548.548453 
L 309.33579 546.651963 
L 309.843571 546.190423 
L 310.351351 552.714726 
L 310.859132 556.560867 
L 311.366912 556.090292 
L 311.874693 549.739626 
L 312.382473 551.66367 
L 312.890254 548.70986 
L 313.398034 541.349325 
L 313.905815 543.558879 
L 314.413595 542.15774 
L 314.921376 545.787305 
L 315.429156 552.500542 
L 315.936937 552.200143 
L 316.444717 561.578272 
L 316.952498 562.745655 
L 317.460278 571.744789 
L 317.968059 574.822527 
L 318.475839 576.98867 
L 318.98362 565.530555 
L 319.4914 565.292794 
L 319.999181 563.608197 
L 320.506962 559.838508 
L 321.014742 560.960688 
L 321.522523 564.006833 
L 322.030303 564.816938 
L 322.538084 567.700939 
L 323.045864 583.164904 
L 323.553645 586.54044 
L 324.061425 593.359732 
L 324.569206 591.988477 
L 325.076986 591.609401 
L 325.584767 592.369407 
L 326.092547 593.675483 
L 326.600328 594.529799 
L 327.108108 587.216526 
L 328.123669 597.478188 
L 328.63145 599.382916 
L 329.13923 598.351654 
L 330.154791 585.990083 
L 330.662572 585.298834 
L 331.170352 582.628709 
L 331.678133 589.15748 
L 332.185913 585.815709 
L 332.693694 592.183565 
L 333.709255 589.852297 
L 334.724816 586.054069 
L 335.232596 591.56976 
L 335.740377 589.122201 
L 336.248157 582.188643 
L 336.755938 583.620909 
L 337.263718 582.628559 
L 338.279279 571.579776 
L 338.78706 578.28355 
L 339.29484 582.533026 
L 339.802621 584.967531 
L 340.310401 580.673118 
L 340.818182 579.595707 
L 341.325962 580.402517 
L 341.833743 572.787385 
L 342.341523 570.91632 
L 342.849304 564.430822 
L 343.357084 565.277409 
L 344.372645 580.805449 
L 344.880426 575.077425 
L 345.388206 580.305137 
L 345.895987 575.192895 
L 346.403767 573.287507 
L 346.911548 567.825954 
L 347.419328 577.132019 
L 347.927109 571.522617 
L 348.434889 567.761244 
L 348.94267 568.920757 
L 349.45045 568.407276 
L 349.958231 567.665232 
L 350.973792 573.526611 
L 351.481572 584.100773 
L 351.989353 599.640558 
L 352.497133 593.232865 
L 353.004914 592.935458 
L 353.512695 594.562898 
L 354.020475 597.018199 
L 354.528256 593.49662 
L 355.036036 599.357838 
L 356.051597 597.53822 
L 356.559378 600.037177 
L 357.067158 605.290909 
L 357.574939 596.844208 
L 358.5905 591.125857 
L 359.09828 590.23708 
L 359.606061 588.90481 
L 360.113841 592.539396 
L 360.621622 587.664549 
L 361.637183 584.56106 
L 362.144963 578.506068 
L 363.160524 578.506229 
L 363.668305 579.550097 
L 364.176085 580.304682 
L 364.683866 574.697891 
L 365.191646 584.206085 
L 365.699427 574.605675 
L 366.207207 574.053559 
L 366.714988 583.22975 
L 367.222768 580.919511 
L 367.730549 572.275924 
L 368.238329 566.320259 
L 368.74611 567.012061 
L 369.25389 570.386069 
L 369.761671 571.758685 
L 370.777232 562.075955 
L 371.285012 566.004804 
L 371.792793 562.296814 
L 372.300573 561.179503 
L 372.808354 557.936417 
L 373.316134 555.568503 
L 373.823915 562.624076 
L 374.839476 571.263604 
L 375.347256 572.676877 
L 375.855037 567.697976 
L 376.362817 576.135358 
L 376.870598 574.58696 
L 377.378378 580.820145 
L 377.886159 581.380766 
L 378.393939 583.635622 
L 378.90172 572.810288 
L 379.917281 563.019738 
L 380.425061 562.506589 
L 380.932842 563.664747 
L 381.440622 570.990266 
L 381.948403 570.856233 
L 382.456183 567.22766 
L 382.963964 561.012376 
L 383.471744 558.788717 
L 383.979525 559.80228 
L 384.487305 554.93992 
L 384.995086 552.78608 
L 385.502867 551.148313 
L 386.010647 555.721671 
L 386.518428 555.448027 
L 387.026208 540.425186 
L 387.533989 539.509514 
L 388.041769 546.9972 
L 388.54955 545.381662 
L 389.05733 541.797557 
L 389.565111 545.985188 
L 390.072891 547.501495 
L 390.580672 551.256291 
L 391.088452 551.510434 
L 391.596233 549.936815 
L 392.104013 540.028263 
L 392.611794 539.241399 
L 393.119574 547.297794 
L 393.627355 551.218606 
L 394.135135 553.12088 
L 394.642916 551.444015 
L 395.150696 546.086799 
L 395.658477 557.893464 
L 396.166257 563.38464 
L 396.674038 562.854442 
L 397.181818 557.299121 
L 397.689599 559.862852 
L 398.197379 557.491744 
L 398.70516 558.460906 
L 399.21294 551.76629 
L 399.720721 559.951812 
L 400.228501 564.641397 
L 400.736282 566.123433 
L 401.244062 570.671948 
L 401.751843 568.040347 
L 402.259623 573.663707 
L 402.767404 573.455607 
L 403.275184 569.937756 
L 403.782965 570.356223 
L 404.290745 562.948249 
L 404.798526 560.600595 
L 405.306306 556.307548 
L 405.814087 558.735252 
L 406.321867 556.114687 
L 406.829648 546.36344 
L 407.337428 546.512851 
L 407.845209 555.367146 
L 408.352989 551.623089 
L 408.86077 538.783805 
L 409.36855 535.646256 
L 409.876331 533.402782 
L 410.384111 529.39859 
L 410.891892 523.940339 
L 411.399672 524.670062 
L 411.907453 530.32322 
L 412.415233 529.816753 
L 412.923014 535.920172 
L 413.430794 531.731481 
L 413.938575 529.620054 
L 414.446355 513.197082 
L 414.954136 503.896702 
L 415.461916 512.556521 
L 415.969697 517.458348 
L 416.477477 519.735747 
L 416.985258 518.942664 
L 417.493038 507.137139 
L 418.000819 510.227337 
L 418.5086 508.64776 
L 419.01638 520.405374 
L 419.524161 524.2257 
L 420.031941 520.047895 
L 420.539722 526.131053 
L 421.047502 524.940115 
L 422.063063 519.613365 
L 422.570844 525.465981 
L 423.078624 521.467093 
L 423.586405 529.777507 
L 424.094185 531.464542 
L 425.109746 519.293742 
L 425.617527 518.524033 
L 426.125307 522.131648 
L 426.633088 520.895763 
L 427.140868 513.315206 
L 427.648649 516.930361 
L 428.156429 513.045991 
L 428.66421 515.841196 
L 429.17199 513.500182 
L 429.679771 515.76564 
L 430.187551 517.252933 
L 430.695332 511.776274 
L 431.203112 512.863808 
L 431.710893 525.093765 
L 432.218673 524.174394 
L 432.726454 517.629016 
L 433.234234 517.646925 
L 433.742015 524.566617 
L 434.249795 524.996548 
L 434.757576 524.514403 
L 435.265356 522.114273 
L 435.773137 524.510128 
L 436.280917 516.604443 
L 436.788698 512.103031 
L 438.312039 509.326923 
L 438.81982 512.662668 
L 439.3276 527.145103 
L 439.835381 521.47201 
L 440.343161 535.634816 
L 440.850942 532.434617 
L 441.358722 533.691205 
L 441.866503 527.592241 
L 442.374283 531.258001 
L 442.882064 522.280266 
L 443.389844 515.678289 
L 443.897625 512.567679 
L 444.405405 505.759867 
L 444.913186 508.489438 
L 445.420966 514.871015 
L 445.928747 515.858371 
L 446.436527 516.569604 
L 446.944308 518.777592 
L 447.452088 516.339667 
L 447.959869 511.777169 
L 448.467649 510.796889 
L 448.97543 512.437509 
L 449.48321 513.329625 
L 449.990991 514.77353 
L 450.498771 525.692316 
L 451.006552 516.474328 
L 451.514333 513.128086 
L 452.022113 512.086105 
L 452.529894 512.728033 
L 453.037674 518.595033 
L 453.545455 520.528737 
L 454.053235 518.383368 
L 454.561016 520.276714 
L 455.068796 523.481582 
L 455.576577 525.565937 
L 456.084357 526.614944 
L 456.592138 518.159443 
L 457.099918 530.9745 
L 457.607699 534.503153 
L 458.115479 534.402663 
L 458.62326 533.336293 
L 459.13104 533.62292 
L 459.638821 531.828266 
L 460.146601 526.193417 
L 460.654382 529.800917 
L 461.162162 525.379097 
L 461.669943 517.951127 
L 462.177723 517.915753 
L 462.685504 513.411158 
L 463.193284 507.192136 
L 463.701065 502.444982 
L 464.208845 500.434949 
L 464.716626 500.821055 
L 465.224406 501.407478 
L 465.732187 503.476216 
L 466.239967 499.011978 
L 466.747748 495.682026 
L 467.255528 491.353776 
L 467.763309 497.443535 
L 468.271089 505.135107 
L 468.77887 487.321508 
L 469.28665 494.926558 
L 470.302211 486.319067 
L 470.809992 483.66025 
L 471.317772 487.190586 
L 471.825553 475.68862 
L 472.333333 459.460516 
L 472.841114 455.396973 
L 473.348894 453.663018 
L 473.856675 462.065995 
L 474.364455 464.509774 
L 475.380016 478.963353 
L 475.887797 486.439708 
L 476.395577 486.688865 
L 476.903358 489.255303 
L 477.918919 502.849544 
L 478.426699 501.733032 
L 478.93448 498.809169 
L 479.44226 490.565709 
L 479.950041 490.53683 
L 480.457821 492.511854 
L 480.965602 491.366947 
L 481.473382 490.745657 
L 481.981163 486.89501 
L 482.488943 484.493981 
L 482.996724 478.010843 
L 483.504505 483.581543 
L 484.012285 484.038809 
L 484.520066 489.605939 
L 485.027846 478.298793 
L 485.535627 475.950616 
L 486.043407 476.688947 
L 486.551188 476.865962 
L 487.058968 479.387162 
L 487.566749 478.524367 
L 488.58231 475.461856 
L 489.09009 471.274313 
L 489.597871 478.69399 
L 490.105651 481.80147 
L 490.613432 492.399711 
L 491.121212 494.350994 
L 491.628993 484.558732 
L 492.136773 492.589414 
L 492.644554 481.675214 
L 493.152334 484.405399 
L 493.660115 474.099606 
L 494.167895 475.497305 
L 494.675676 472.871429 
L 495.183456 476.403649 
L 495.691237 474.801895 
L 496.199017 468.743644 
L 497.214578 461.891093 
L 497.722359 463.97441 
L 498.230139 464.373381 
L 498.73792 463.658484 
L 499.2457 466.512337 
L 500.261261 473.879238 
L 500.769042 471.878658 
L 502.292383 441.985609 
L 502.800164 444.50868 
L 503.307944 446.378838 
L 503.815725 449.097595 
L 504.323505 445.197248 
L 504.831286 452.175866 
L 505.339066 450.133149 
L 505.846847 460.003609 
L 506.354627 473.272503 
L 506.862408 476.101918 
L 507.370188 470.68095 
L 507.877969 468.977401 
L 508.385749 467.901617 
L 508.89353 478.077137 
L 509.40131 485.358809 
L 509.909091 486.093664 
L 510.416871 485.617812 
L 510.924652 489.353651 
L 511.432432 489.014485 
L 511.940213 493.75318 
L 512.447993 487.171178 
L 512.955774 483.681856 
L 513.463554 483.697913 
L 513.971335 482.727443 
L 514.479115 483.591338 
L 514.986896 488.279191 
L 515.494676 481.737183 
L 516.002457 477.52347 
L 516.510238 481.137766 
L 517.018018 476.126477 
L 517.525799 475.653304 
L 518.033579 480.200138 
L 518.54136 474.639011 
L 519.04914 471.61586 
L 519.556921 472.419324 
L 520.064701 466.989647 
L 520.572482 471.624747 
L 521.080262 467.214829 
L 521.588043 458.669837 
L 522.095823 465.315442 
L 522.603604 466.738762 
L 523.111384 469.268972 
L 523.619165 469.523715 
L 524.126945 468.859525 
L 524.634726 476.114522 
L 525.142506 478.41531 
L 525.650287 481.384066 
L 526.158067 482.478445 
L 527.173628 477.996512 
L 528.189189 469.957787 
L 528.69697 477.128202 
L 529.20475 473.324877 
L 529.712531 477.775408 
L 530.220311 473.342459 
L 530.728092 476.376827 
L 531.235872 482.592986 
L 531.743653 486.451094 
L 532.251433 489.118065 
L 532.759214 486.172896 
L 533.266994 489.056992 
L 533.774775 482.743994 
L 534.282555 481.6322 
L 534.790336 477.773097 
L 535.298116 479.533794 
L 535.805897 479.92326 
L 536.821458 497.680033 
L 537.837019 485.565277 
L 538.344799 481.802291 
L 538.85258 480.630704 
L 539.868141 473.756104 
L 540.375921 477.106123 
L 540.883702 475.93857 
L 541.391482 469.332621 
L 541.899263 472.138268 
L 542.914824 482.896402 
L 543.422604 480.610965 
L 543.930385 483.778637 
L 544.438165 474.117164 
L 545.453726 468.021822 
L 545.961507 471.557436 
L 546.469287 468.349266 
L 546.977068 470.51742 
L 547.484848 460.342483 
L 547.992629 465.94662 
L 548.50041 469.179609 
L 549.515971 484.73734 
L 550.023751 480.840215 
L 550.531532 496.096884 
L 551.039312 493.959209 
L 551.547093 504.419769 
L 552.562654 511.203927 
L 553.578215 504.487645 
L 554.085995 506.576842 
L 554.593776 510.784916 
L 555.101556 510.61696 
L 555.609337 510.882501 
L 556.117117 508.536797 
L 556.624898 512.614348 
L 557.132678 508.172153 
L 557.640459 510.755565 
L 558.148239 515.504343 
L 558.65602 514.425048 
L 559.1638 524.373611 
L 559.671581 519.449478 
L 561.194922 533.012821 
L 561.702703 541.554939 
L 562.210483 534.189467 
L 563.226044 549.921513 
L 563.733825 550.109232 
L 564.241605 550.091368 
L 564.749386 546.758521 
L 565.257166 549.061001 
L 565.764947 546.159523 
L 566.272727 556.60583 
L 566.780508 550.903556 
L 567.288288 551.08315 
L 567.796069 553.20288 
L 568.303849 550.441263 
L 569.31941 543.173528 
L 569.827191 546.010332 
L 570.334971 555.27163 
L 570.842752 555.479937 
L 571.350532 560.37439 
L 571.858313 568.72212 
L 572.366093 567.210334 
L 572.873874 571.446746 
L 573.381654 580.592022 
L 573.889435 574.331696 
L 574.397215 578.575274 
L 574.904996 575.864295 
L 575.412776 574.750686 
L 575.920557 578.041496 
L 576.428337 584.306509 
L 576.936118 581.809704 
L 577.443898 575.081054 
L 577.951679 570.198794 
L 578.459459 563.008975 
L 578.96724 564.826775 
L 579.47502 567.600547 
L 579.982801 562.636625 
L 580.490581 561.106619 
L 580.998362 556.308741 
L 581.506143 556.046359 
L 582.013923 559.361639 
L 582.521704 558.561526 
L 583.029484 553.880226 
L 583.537265 544.67968 
L 584.045045 549.000607 
L 584.552826 549.286383 
L 585.060606 558.8919 
L 585.568387 562.618645 
L 586.076167 563.662993 
L 586.583948 569.039488 
L 587.091728 572.735497 
L 587.599509 574.076355 
L 588.107289 574.775304 
L 588.61507 564.990716 
L 590.138411 570.552456 
L 590.646192 568.746127 
L 591.153972 573.656346 
L 591.661753 587.405404 
L 592.169533 576.761239 
L 592.677314 584.58941 
L 593.185094 583.891058 
L 593.692875 586.130121 
L 594.200655 583.014389 
L 594.708436 568.518517 
L 595.216216 567.530914 
L 595.723997 560.534064 
L 596.739558 555.42638 
L 597.247338 547.808561 
L 597.755119 546.049434 
L 598.262899 548.329622 
L 598.77068 546.831127 
L 599.27846 550.154434 
L 599.786241 548.618974 
L 600.294021 550.244209 
L 600.801802 547.462271 
L 601.309582 545.929947 
L 601.817363 542.225927 
L 602.325143 546.981463 
L 602.832924 547.171042 
L 603.340704 543.773677 
L 603.848485 545.280958 
L 604.356265 546.238865 
L 604.864046 556.685105 
L 605.371826 560.339618 
L 606.387387 554.621908 
L 606.895168 561.643571 
L 607.402948 565.29624 
L 607.910729 567.820925 
L 608.418509 570.972255 
L 608.92629 578.758641 
L 609.43407 578.227735 
L 609.941851 582.736133 
L 610.449631 575.069709 
L 610.957412 580.371886 
L 611.465192 576.275356 
L 611.972973 578.522378 
L 612.480753 586.324893 
L 612.988534 596.98656 
L 613.496314 593.062197 
L 615.019656 585.483971 
L 615.527437 585.531251 
L 616.035217 574.810028 
L 616.542998 582.454019 
L 617.050778 581.143024 
L 617.558559 578.105677 
L 618.066339 579.147496 
L 618.57412 567.47742 
L 619.0819 572.297575 
L 619.589681 562.859108 
L 620.605242 574.147048 
L 621.113022 570.24233 
L 621.620803 569.535299 
L 622.128583 563.513043 
L 622.636364 559.400239 
L 622.636364 559.400239 
" clip-path="url(#pfa0efb0322)" style="fill: none; stroke-dasharray: 5.55,2.4; stroke-dashoffset: 0; stroke: #ff0000; stroke-width: 1.5"/>
   </g>
   <g id="line2d_14">
    <path d="M 115.363636 247.215724 
L 115.871417 244.925295 
L 116.886978 255.856337 
L 117.394758 253.577533 
L 117.902539 265.84142 
L 118.9181 275.715161 
L 119.42588 271.922607 
L 119.933661 270.248998 
L 120.441441 268.978906 
L 120.949222 276.937937 
L 121.457002 267.017745 
L 121.964783 266.386582 
L 122.472563 271.568131 
L 122.980344 271.643436 
L 123.488124 274.773727 
L 124.503686 263.662542 
L 125.011466 260.241105 
L 125.519247 259.696248 
L 126.027027 251.934488 
L 126.534808 252.939079 
L 127.042588 247.123872 
L 127.550369 237.305157 
L 128.058149 236.399388 
L 128.56593 241.760212 
L 129.07371 240.395661 
L 129.581491 242.28293 
L 130.089271 228.632993 
L 130.597052 230.609531 
L 131.104832 235.977547 
L 131.612613 244.48044 
L 132.120393 247.566953 
L 132.628174 244.068903 
L 133.135954 250.405312 
L 133.643735 247.669723 
L 134.151515 241.680846 
L 134.659296 251.914135 
L 135.167076 251.232648 
L 135.674857 257.53179 
L 136.182637 259.856846 
L 137.198198 262.231682 
L 137.705979 261.530307 
L 138.213759 262.513923 
L 138.72154 261.808364 
L 139.22932 260.438525 
L 139.737101 249.691446 
L 140.244881 250.196934 
L 140.752662 254.346606 
L 141.260442 255.0479 
L 141.768223 243.803704 
L 142.276003 246.042065 
L 142.783784 251.433085 
L 143.291564 249.072206 
L 143.799345 252.594259 
L 144.307125 247.532895 
L 144.814906 251.792481 
L 145.322686 252.426784 
L 145.830467 251.59566 
L 146.338247 241.377887 
L 146.846028 249.345331 
L 147.353808 251.434137 
L 147.861589 250.059652 
L 148.369369 252.654049 
L 148.87715 262.498052 
L 149.38493 256.612156 
L 149.892711 257.698378 
L 150.400491 253.776702 
L 151.416052 248.989479 
L 151.923833 249.732591 
L 152.431613 251.992114 
L 152.939394 250.688068 
L 153.447174 249.758538 
L 153.954955 251.206953 
L 155.478296 264.062628 
L 155.986077 265.874788 
L 156.493857 260.137509 
L 157.001638 257.321203 
L 157.509419 259.867347 
L 158.017199 266.087607 
L 158.52498 263.835559 
L 159.03276 267.099014 
L 159.540541 264.77053 
L 160.048321 263.667032 
L 160.556102 265.185912 
L 161.063882 270.229102 
L 161.571663 269.2232 
L 162.587224 278.835112 
L 163.095004 290.227277 
L 163.602785 293.444856 
L 164.110565 294.019788 
L 164.618346 294.838694 
L 165.126126 298.708878 
L 165.633907 293.465295 
L 166.141687 301.176862 
L 166.649468 301.401939 
L 167.157248 298.993856 
L 167.665029 302.201296 
L 168.172809 303.349605 
L 169.18837 295.374665 
L 170.203931 291.003649 
L 170.711712 283.923835 
L 171.219492 282.580281 
L 171.727273 276.612608 
L 172.235053 290.750519 
L 172.742834 288.144581 
L 173.250614 287.692208 
L 173.758395 283.314421 
L 174.266175 283.617855 
L 174.773956 286.025327 
L 175.281736 292.926696 
L 176.297297 275.810935 
L 176.805078 273.027818 
L 177.312858 276.293716 
L 177.820639 276.130636 
L 178.328419 283.656554 
L 178.8362 280.708206 
L 179.34398 280.667591 
L 179.851761 284.020718 
L 180.359541 286.352538 
L 180.867322 284.534223 
L 181.375102 287.754826 
L 182.390663 303.916044 
L 182.898444 303.370284 
L 183.406224 301.068436 
L 183.914005 301.192091 
L 184.421785 296.499665 
L 184.929566 308.200222 
L 185.437346 312.838406 
L 185.945127 310.423405 
L 186.452907 300.88222 
L 186.960688 298.499764 
L 187.468468 298.720782 
L 187.976249 296.276693 
L 188.484029 293.250103 
L 188.99181 283.049905 
L 190.515152 293.812893 
L 191.530713 284.499203 
L 192.038493 290.791501 
L 192.546274 283.902182 
L 193.054054 288.703368 
L 193.561835 289.927285 
L 194.069615 284.637534 
L 194.577396 286.521622 
L 195.085176 285.000118 
L 195.592957 285.851238 
L 196.100737 288.536673 
L 196.608518 293.485042 
L 197.116298 301.796303 
L 197.624079 300.225145 
L 198.131859 299.747697 
L 198.63964 306.984754 
L 199.14742 307.300153 
L 199.655201 311.617776 
L 200.670762 331.687294 
L 201.178542 333.495061 
L 201.686323 324.422288 
L 202.701884 333.140652 
L 203.209664 332.066744 
L 203.717445 339.667566 
L 204.225225 339.043165 
L 204.733006 341.404112 
L 205.240786 332.694103 
L 205.748567 329.340425 
L 206.256347 337.020223 
L 206.764128 335.47721 
L 207.271908 330.755673 
L 207.779689 336.183826 
L 208.287469 350.879843 
L 209.30303 342.870247 
L 209.810811 349.173872 
L 210.318591 351.926722 
L 210.826372 348.694082 
L 211.334152 354.751599 
L 211.841933 357.028764 
L 212.857494 365.231303 
L 213.365274 356.24836 
L 214.380835 359.576066 
L 215.396396 362.341904 
L 215.904177 362.395678 
L 216.411957 363.269619 
L 216.919738 360.158676 
L 217.427518 355.545275 
L 217.935299 356.324838 
L 218.443079 349.58754 
L 218.95086 351.199025 
L 219.45864 347.807841 
L 219.966421 349.454786 
L 220.474201 354.18402 
L 220.981982 350.725136 
L 221.489762 352.62243 
L 221.997543 350.429827 
L 222.505324 355.410859 
L 223.013104 355.331633 
L 223.520885 362.65496 
L 224.028665 362.619728 
L 224.536446 361.459575 
L 225.044226 359.82847 
L 225.552007 366.900678 
L 226.059787 364.652634 
L 226.567568 360.15205 
L 227.075348 362.791415 
L 227.583129 366.486099 
L 228.090909 359.247828 
L 228.59869 357.498141 
L 229.10647 366.696338 
L 229.614251 369.697458 
L 230.122031 375.121202 
L 230.629812 379.237914 
L 231.645373 357.442808 
L 232.153153 350.880712 
L 232.660934 360.748715 
L 233.168714 366.715914 
L 233.676495 359.733395 
L 234.184275 357.295477 
L 234.692056 347.00395 
L 235.199836 351.074254 
L 235.707617 349.083567 
L 236.215397 352.18518 
L 236.723178 345.140178 
L 237.230958 350.216517 
L 237.738739 351.055253 
L 238.246519 345.921235 
L 238.7543 344.665677 
L 239.26208 354.770388 
L 240.277641 340.132058 
L 240.785422 344.729045 
L 241.293202 340.111008 
L 241.800983 344.12935 
L 242.308763 349.934603 
L 242.816544 350.109982 
L 243.324324 346.17557 
L 243.832105 345.341425 
L 244.339885 352.399693 
L 244.847666 356.902702 
L 245.863227 362.432754 
L 246.878788 355.366315 
L 247.386568 356.252402 
L 247.894349 357.900047 
L 248.402129 358.397719 
L 248.90991 352.606853 
L 249.41769 362.831139 
L 249.925471 367.526668 
L 250.433251 368.811808 
L 250.941032 368.513987 
L 251.448812 374.788836 
L 251.956593 373.078381 
L 252.464373 372.020107 
L 252.972154 369.642731 
L 253.479934 365.349983 
L 253.987715 356.831958 
L 254.495495 364.391539 
L 255.003276 360.463289 
L 255.511057 364.186029 
L 256.018837 353.541149 
L 256.526618 353.49765 
L 257.034398 357.701383 
L 257.542179 357.60666 
L 258.049959 355.606114 
L 258.55774 351.511062 
L 259.06552 345.456573 
L 259.573301 352.449901 
L 260.081081 354.055295 
L 260.588862 354.595174 
L 261.096642 353.95734 
L 261.604423 358.818499 
L 262.112203 352.104417 
L 262.619984 362.457086 
L 263.127764 362.521621 
L 263.635545 365.212044 
L 264.143325 368.6916 
L 264.651106 366.132812 
L 265.158886 358.608234 
L 265.666667 353.752715 
L 266.174447 351.777272 
L 266.682228 350.348159 
L 267.190008 338.574605 
L 268.205569 340.128039 
L 268.71335 343.055711 
L 269.22113 334.152258 
L 270.236691 340.987793 
L 270.744472 347.103858 
L 271.252252 342.629581 
L 271.760033 335.414012 
L 272.267813 335.426903 
L 272.775594 328.026965 
L 274.298935 344.961784 
L 274.806716 356.619899 
L 275.314496 353.073604 
L 275.822277 354.217918 
L 276.330057 361.429655 
L 276.837838 359.488653 
L 277.345618 363.719534 
L 277.853399 371.036425 
L 278.361179 369.66745 
L 279.37674 372.068167 
L 279.884521 380.847838 
L 280.392301 377.907192 
L 281.407862 384.332472 
L 282.423423 388.048258 
L 282.931204 389.795341 
L 283.438984 389.866535 
L 283.946765 383.917574 
L 284.454545 381.730091 
L 284.962326 382.47659 
L 285.470106 391.817736 
L 285.977887 393.76333 
L 286.485667 387.662131 
L 286.993448 384.537213 
L 287.501229 383.290202 
L 288.009009 393.681329 
L 288.51679 391.630073 
L 289.02457 393.493026 
L 289.532351 392.748037 
L 290.040131 397.116261 
L 290.547912 388.42791 
L 291.055692 387.662689 
L 291.563473 395.042113 
L 292.071253 395.873861 
L 292.579034 394.22115 
L 293.086814 395.615167 
L 293.594595 403.456263 
L 294.102375 405.146721 
L 294.610156 405.521575 
L 295.117936 409.565568 
L 295.625717 410.72949 
L 296.133497 408.462894 
L 296.641278 417.55908 
L 297.149058 413.074963 
L 297.656839 410.44537 
L 298.164619 404.838514 
L 298.6724 406.740521 
L 299.18018 400.198395 
L 299.687961 410.485712 
L 300.195741 409.19796 
L 300.703522 413.881163 
L 301.211302 407.003982 
L 302.226863 414.128579 
L 302.734644 414.25562 
L 303.242424 401.516784 
L 303.750205 393.340665 
L 304.257985 400.475346 
L 305.273546 390.590881 
L 305.781327 387.35 
L 306.289107 394.201983 
L 306.796888 389.176052 
L 307.304668 404.477774 
L 307.812449 404.146766 
L 308.320229 404.499951 
L 308.82801 399.253849 
L 309.33579 399.592951 
L 309.843571 387.950384 
L 310.351351 384.239655 
L 310.859132 382.058218 
L 311.366912 374.632719 
L 311.874693 371.318834 
L 312.382473 363.748402 
L 312.890254 368.6924 
L 313.398034 359.144773 
L 313.905815 361.087914 
L 314.413595 361.819556 
L 314.921376 372.781721 
L 315.429156 371.813351 
L 315.936937 372.910797 
L 316.444717 370.434034 
L 316.952498 364.893443 
L 317.460278 371.703453 
L 317.968059 375.32245 
L 319.4914 368.589355 
L 319.999181 359.030937 
L 320.506962 361.393172 
L 321.014742 361.17351 
L 321.522523 358.940119 
L 322.030303 351.123458 
L 323.045864 358.056128 
L 323.553645 357.60167 
L 324.569206 362.001504 
L 325.076986 373.081403 
L 325.584767 372.11665 
L 326.092547 375.850938 
L 326.600328 372.121797 
L 327.108108 370.730476 
L 327.615889 370.083134 
L 328.123669 373.629154 
L 328.63145 364.16209 
L 329.13923 359.412974 
L 329.647011 361.457112 
L 330.154791 362.95576 
L 330.662572 362.382474 
L 331.170352 367.719099 
L 331.678133 379.221316 
L 332.185913 380.350623 
L 332.693694 379.005229 
L 333.201474 390.258917 
L 333.709255 391.615463 
L 334.217035 395.060927 
L 334.724816 393.170878 
L 335.232596 395.037723 
L 335.740377 401.364541 
L 336.248157 400.032863 
L 336.755938 401.069638 
L 337.263718 412.049534 
L 337.771499 409.941886 
L 338.279279 409.007504 
L 338.78706 400.770916 
L 339.29484 398.100482 
L 339.802621 391.893849 
L 340.310401 387.72309 
L 340.818182 387.783419 
L 341.325962 387.2344 
L 341.833743 391.018724 
L 342.341523 386.180319 
L 342.849304 385.173781 
L 343.357084 378.233146 
L 343.864865 379.552685 
L 344.880426 392.979001 
L 345.388206 388.648559 
L 345.895987 390.600077 
L 346.403767 387.646532 
L 346.911548 374.327957 
L 347.419328 379.075731 
L 347.927109 377.741615 
L 348.434889 373.917515 
L 348.94267 373.924399 
L 349.45045 379.848198 
L 349.958231 374.815126 
L 350.466011 354.68527 
L 350.973792 349.828613 
L 351.481572 350.009815 
L 351.989353 349.401116 
L 352.497133 349.085747 
L 353.004914 357.836281 
L 353.512695 357.535093 
L 354.020475 361.07548 
L 354.528256 366.98547 
L 355.036036 356.974448 
L 355.543817 357.490462 
L 356.051597 358.818933 
L 356.559378 352.699801 
L 357.067158 354.404055 
L 357.574939 358.489349 
L 358.082719 357.112215 
L 359.09828 345.87074 
L 359.606061 353.773937 
L 360.113841 363.602673 
L 360.621622 355.543605 
L 361.129402 361.765196 
L 361.637183 360.395576 
L 362.144963 353.324454 
L 363.160524 366.319368 
L 363.668305 365.238074 
L 364.176085 365.386376 
L 364.683866 358.79982 
L 365.191646 357.832511 
L 365.699427 353.844529 
L 366.207207 351.81798 
L 366.714988 355.478124 
L 367.222768 362.167929 
L 367.730549 354.042299 
L 368.238329 351.706265 
L 368.74611 343.734701 
L 369.25389 340.168731 
L 369.761671 347.697636 
L 370.269451 340.699662 
L 370.777232 342.071772 
L 371.285012 333.97174 
L 371.792793 338.303039 
L 372.300573 329.127862 
L 372.808354 331.274157 
L 373.316134 329.162787 
L 373.823915 327.53757 
L 374.331695 327.143183 
L 375.347256 331.373996 
L 375.855037 331.644074 
L 376.362817 330.345082 
L 377.378378 335.343674 
L 377.886159 328.617671 
L 378.393939 329.214812 
L 379.4095 343.436283 
L 379.917281 341.177166 
L 380.425061 326.998583 
L 380.932842 326.860251 
L 381.440622 325.613789 
L 381.948403 334.886713 
L 382.456183 338.319239 
L 382.963964 344.008348 
L 383.471744 343.861855 
L 383.979525 338.206835 
L 384.487305 354.692623 
L 384.995086 356.286939 
L 385.502867 361.86369 
L 386.010647 360.637802 
L 386.518428 360.055103 
L 387.026208 359.848809 
L 388.041769 374.639014 
L 388.54955 380.322053 
L 389.05733 371.618965 
L 389.565111 367.111276 
L 390.072891 364.867612 
L 390.580672 370.890944 
L 391.088452 371.086473 
L 391.596233 373.382758 
L 392.104013 373.774503 
L 392.611794 376.908603 
L 393.119574 381.064628 
L 393.627355 378.457074 
L 394.135135 373.640449 
L 394.642916 367.103522 
L 395.150696 364.809829 
L 395.658477 358.214239 
L 396.166257 370.269716 
L 396.674038 362.375411 
L 397.689599 384.070573 
L 398.197379 377.831166 
L 398.70516 381.78848 
L 399.21294 377.173791 
L 399.720721 380.236575 
L 400.228501 371.116826 
L 400.736282 367.403108 
L 401.244062 365.779542 
L 401.751843 354.876386 
L 402.259623 351.395701 
L 402.767404 349.814962 
L 403.275184 349.977028 
L 403.782965 346.338914 
L 404.290745 348.739738 
L 405.306306 362.983323 
L 405.814087 362.183658 
L 406.321867 371.464258 
L 406.829648 377.627289 
L 407.337428 380.886936 
L 407.845209 387.247175 
L 408.352989 380.109114 
L 408.86077 386.783034 
L 409.36855 390.15104 
L 409.876331 388.839288 
L 410.384111 393.014528 
L 410.891892 396.030308 
L 411.399672 400.796531 
L 411.907453 399.333991 
L 412.415233 401.022888 
L 412.923014 406.957663 
L 413.430794 405.278266 
L 413.938575 399.841641 
L 414.954136 411.752011 
L 415.461916 412.154932 
L 415.969697 405.366859 
L 416.477477 404.000901 
L 416.985258 399.000252 
L 417.493038 398.036818 
L 418.000819 398.893756 
L 419.01638 408.961587 
L 419.524161 410.454882 
L 420.031941 409.729342 
L 420.539722 414.007466 
L 421.047502 416.512228 
L 421.555283 414.102889 
L 422.063063 418.341902 
L 422.570844 428.136733 
L 423.078624 427.052704 
L 423.586405 438.211983 
L 424.601966 425.273963 
L 425.109746 424.481756 
L 425.617527 425.359229 
L 426.125307 426.756098 
L 426.633088 429.320559 
L 427.140868 424.280287 
L 427.648649 426.100255 
L 428.156429 433.647844 
L 428.66421 434.39354 
L 429.17199 434.804951 
L 429.679771 429.395056 
L 430.187551 435.91793 
L 430.695332 435.376 
L 431.203112 446.510568 
L 431.710893 449.49934 
L 432.218673 445.515289 
L 432.726454 440.045497 
L 433.234234 449.02113 
L 433.742015 443.979226 
L 434.249795 451.247609 
L 434.757576 439.880561 
L 435.265356 438.319393 
L 436.280917 442.507814 
L 436.788698 436.644199 
L 437.296478 438.197822 
L 437.804259 454.760316 
L 438.312039 447.709498 
L 438.81982 447.860467 
L 439.3276 460.449438 
L 439.835381 457.610802 
L 440.850942 458.918295 
L 441.358722 455.749157 
L 441.866503 461.295301 
L 442.374283 456.687433 
L 442.882064 453.313007 
L 443.389844 462.353508 
L 443.897625 459.644204 
L 444.405405 459.315275 
L 444.913186 454.59169 
L 445.928747 456.431498 
L 446.436527 456.218767 
L 446.944308 459.219774 
L 447.452088 454.399357 
L 447.959869 453.02364 
L 448.97543 439.362261 
L 449.48321 447.619242 
L 449.990991 447.417398 
L 450.498771 445.79153 
L 451.006552 447.691784 
L 452.022113 466.902193 
L 452.529894 466.260779 
L 453.037674 469.5222 
L 453.545455 463.739903 
L 454.053235 465.279389 
L 454.561016 466.134469 
L 455.068796 469.772352 
L 455.576577 466.693635 
L 456.084357 454.195473 
L 456.592138 455.733613 
L 457.099918 452.388822 
L 457.607699 448.242339 
L 458.115479 446.310077 
L 458.62326 442.890451 
L 459.13104 444.725182 
L 459.638821 437.310669 
L 460.146601 438.449011 
L 460.654382 432.664535 
L 461.162162 435.128781 
L 461.669943 430.065382 
L 462.177723 430.914715 
L 462.685504 436.635018 
L 463.193284 437.93053 
L 463.701065 438.220228 
L 464.208845 435.835977 
L 464.716626 438.407275 
L 465.224406 431.042781 
L 465.732187 433.350909 
L 466.239967 426.885844 
L 466.747748 422.235808 
L 467.255528 421.162411 
L 467.763309 422.124279 
L 468.271089 430.264859 
L 468.77887 432.511781 
L 469.28665 430.201591 
L 469.794431 426.307918 
L 470.302211 429.814876 
L 470.809992 436.21158 
L 471.317772 425.538994 
L 472.333333 425.396027 
L 472.841114 421.470722 
L 473.856675 416.39679 
L 474.364455 416.716718 
L 474.872236 418.695607 
L 475.380016 421.784172 
L 475.887797 429.628304 
L 476.395577 420.651934 
L 476.903358 427.06881 
L 477.411138 420.726059 
L 477.918919 420.689793 
L 478.426699 412.157393 
L 478.93448 413.410617 
L 479.950041 406.415649 
L 480.457821 400.190019 
L 480.965602 402.721943 
L 481.473382 395.743939 
L 481.981163 394.536296 
L 482.996724 379.641841 
L 483.504505 384.042399 
L 484.012285 389.891002 
L 484.520066 380.340873 
L 485.027846 383.598663 
L 485.535627 374.789287 
L 486.043407 375.530382 
L 486.551188 371.731369 
L 487.058968 374.372243 
L 487.566749 364.440942 
L 488.074529 365.358656 
L 488.58231 369.200975 
L 489.09009 359.15807 
L 489.597871 363.945153 
L 490.105651 358.132451 
L 490.613432 359.115602 
L 491.121212 357.546275 
L 492.136773 346.521591 
L 492.644554 351.42975 
L 493.152334 359.947566 
L 493.660115 364.797652 
L 494.167895 358.823582 
L 494.675676 344.175654 
L 495.183456 351.024545 
L 495.691237 349.531231 
L 496.199017 354.423233 
L 496.706798 344.322502 
L 497.214578 341.706473 
L 497.722359 328.119293 
L 498.230139 327.824856 
L 498.73792 319.932967 
L 499.2457 324.215598 
L 499.753481 321.074625 
L 500.261261 325.711255 
L 500.769042 323.325418 
L 501.276822 323.242433 
L 502.292383 319.466002 
L 502.800164 317.367947 
L 503.307944 313.862607 
L 503.815725 316.60285 
L 504.323505 322.243613 
L 504.831286 323.167245 
L 505.339066 327.668479 
L 505.846847 330.918119 
L 506.354627 328.739341 
L 506.862408 327.334427 
L 507.877969 319.688137 
L 508.385749 317.937724 
L 508.89353 315.04552 
L 509.909091 320.187575 
L 510.416871 318.258561 
L 510.924652 320.773707 
L 511.432432 318.674217 
L 511.940213 313.735191 
L 512.447993 310.37434 
L 512.955774 309.816475 
L 513.463554 303.194062 
L 514.479115 294.296965 
L 514.986896 297.632852 
L 515.494676 304.766703 
L 516.002457 304.467452 
L 516.510238 303.528495 
L 517.018018 311.864216 
L 517.525799 309.787217 
L 518.033579 311.161939 
L 518.54136 305.64151 
L 519.04914 305.393618 
L 519.556921 312.780464 
L 520.572482 302.449107 
L 521.080262 299.580735 
L 521.588043 306.531534 
L 522.095823 308.214095 
L 522.603604 303.107721 
L 523.111384 305.385539 
L 523.619165 304.751239 
L 524.634726 306.944037 
L 525.142506 303.085146 
L 525.650287 309.632183 
L 526.158067 312.460644 
L 526.665848 305.045398 
L 527.173628 311.786076 
L 527.681409 309.956032 
L 528.189189 307.073785 
L 528.69697 298.213218 
L 529.20475 295.268043 
L 529.712531 301.23609 
L 530.220311 302.323739 
L 530.728092 302.367828 
L 531.235872 304.257781 
L 531.743653 303.923716 
L 532.251433 311.439709 
L 532.759214 306.444809 
L 533.266994 307.759063 
L 533.774775 310.30024 
L 534.282555 310.669633 
L 534.790336 307.54853 
L 535.298116 302.302105 
L 535.805897 308.896473 
L 536.821458 300.63225 
L 537.329238 301.30807 
L 538.344799 303.807973 
L 538.85258 298.653849 
L 539.868141 292.505812 
L 540.375921 290.45881 
L 540.883702 285.213399 
L 541.391482 278.282777 
L 541.899263 276.178416 
L 542.407043 277.605619 
L 542.914824 271.519431 
L 543.422604 274.133286 
L 543.930385 275.361959 
L 544.438165 274.238785 
L 544.945946 268.958881 
L 545.453726 267.630561 
L 545.961507 260.923686 
L 546.469287 267.171352 
L 546.977068 275.694517 
L 547.484848 269.685922 
L 547.992629 271.044849 
L 548.50041 268.103323 
L 549.00819 272.829644 
L 549.515971 273.717592 
L 550.023751 274.240737 
L 550.531532 273.827567 
L 551.039312 273.237971 
L 551.547093 275.551034 
L 552.054873 269.090925 
L 552.562654 260.101642 
L 553.070434 268.225278 
L 553.578215 274.336586 
L 554.085995 275.859474 
L 554.593776 272.908858 
L 555.101556 272.938388 
L 555.609337 272.584925 
L 556.117117 264.420004 
L 556.624898 268.093591 
L 557.132678 264.843206 
L 557.640459 259.633525 
L 558.148239 257.603391 
L 558.65602 254.546178 
L 559.1638 258.86609 
L 559.671581 258.38927 
L 560.179361 261.4331 
L 560.687142 259.80115 
L 561.194922 260.91182 
L 561.702703 260.326252 
L 562.210483 259.502415 
L 562.718264 250.228094 
L 563.226044 255.200594 
L 563.733825 253.597693 
L 564.241605 256.947728 
L 564.749386 254.920708 
L 565.257166 250.176018 
L 565.764947 253.042739 
L 566.272727 253.673039 
L 566.780508 256.698484 
L 567.288288 252.952806 
L 569.31941 268.706236 
L 569.827191 276.421166 
L 570.334971 279.034276 
L 570.842752 280.039374 
L 571.350532 273.808967 
L 571.858313 277.808135 
L 572.366093 277.554802 
L 573.381654 289.423017 
L 573.889435 282.339379 
L 574.397215 278.443805 
L 574.904996 275.658274 
L 575.412776 280.846264 
L 575.920557 277.136052 
L 576.428337 285.92625 
L 576.936118 289.206434 
L 577.443898 281.123891 
L 577.951679 282.163047 
L 578.459459 285.269195 
L 578.96724 274.181087 
L 579.47502 267.270213 
L 579.982801 273.515571 
L 580.490581 275.055479 
L 581.506143 287.000727 
L 582.013923 280.580274 
L 582.521704 285.302218 
L 583.029484 284.848077 
L 583.537265 281.478217 
L 584.045045 279.903841 
L 584.552826 285.797056 
L 585.060606 288.838668 
L 585.568387 288.710579 
L 586.076167 283.351007 
L 586.583948 274.500725 
L 587.091728 271.555649 
L 587.599509 270.398302 
L 588.107289 259.9704 
L 588.61507 259.725117 
L 589.12285 255.294 
L 589.630631 244.555831 
L 590.138411 249.038481 
L 590.646192 247.737149 
L 591.153972 249.213126 
L 591.661753 251.978701 
L 592.169533 251.416634 
L 592.677314 241.761005 
L 593.185094 253.573386 
L 593.692875 259.136814 
L 594.200655 257.540439 
L 594.708436 258.478433 
L 595.216216 261.596566 
L 595.723997 252.16133 
L 596.231777 250.790207 
L 596.739558 244.48533 
L 597.247338 241.831861 
L 597.755119 249.692562 
L 598.262899 252.262506 
L 598.77068 261.206778 
L 599.27846 260.658066 
L 599.786241 263.805624 
L 600.294021 265.539394 
L 600.801802 261.886475 
L 601.309582 265.533301 
L 601.817363 259.581005 
L 602.325143 257.966989 
L 602.832924 258.772133 
L 603.340704 265.285933 
L 603.848485 269.767121 
L 604.356265 266.634139 
L 604.864046 264.987745 
L 605.371826 264.517957 
L 605.879607 263.674128 
L 606.387387 271.777037 
L 606.895168 273.783849 
L 607.402948 278.346827 
L 607.910729 262.060366 
L 608.418509 262.481395 
L 609.43407 276.435432 
L 609.941851 285.726489 
L 610.449631 277.981251 
L 610.957412 273.278275 
L 611.465192 264.975077 
L 611.972973 265.923095 
L 612.480753 271.166419 
L 612.988534 270.662711 
L 613.496314 261.712553 
L 614.511876 269.106663 
L 615.019656 269.159655 
L 615.527437 276.829291 
L 616.035217 276.451529 
L 617.050778 288.038993 
L 618.066339 284.973579 
L 618.57412 287.083482 
L 619.0819 287.002884 
L 619.589681 283.715931 
L 620.097461 288.215668 
L 620.605242 279.804096 
L 621.113022 280.463954 
L 621.620803 279.23385 
L 622.128583 275.047032 
L 622.636364 269.013109 
L 622.636364 269.013109 
" clip-path="url(#pfa0efb0322)" style="fill: none; stroke-dasharray: 1.5,2.475; stroke-dashoffset: 0; stroke: #000000; stroke-width: 1.5"/>
   </g>
   <g id="patch_3">
    <path d="M 90 630 
L 90 86.4 
" style="fill: none; stroke: #cccccc; stroke-width: 1.25; stroke-linejoin: miter; stroke-linecap: square"/>
   </g>
   <g id="patch_4">
    <path d="M 648 630 
L 648 86.4 
" style="fill: none; stroke: #cccccc; stroke-width: 1.25; stroke-linejoin: miter; stroke-linecap: square"/>
   </g>
   <g id="patch_5">
    <path d="M 90 630 
L 648 630 
" style="fill: none; stroke: #cccccc; stroke-width: 1.25; stroke-linejoin: miter; stroke-linecap: square"/>
   </g>
   <g id="patch_6">
    <path d="M 90 86.4 
L 648 86.4 
" style="fill: none; stroke: #cccccc; stroke-width: 1.25; stroke-linejoin: miter; stroke-linecap: square"/>
   </g>
   <g id="legend_1">
    <g id="patch_7">
     <path d="M 578.203281 624.5 
L 640.3 624.5 
Q 642.5 624.5 642.5 622.3 
L 642.5 576.766875 
Q 642.5 574.566875 640.3 574.566875 
L 578.203281 574.566875 
Q 576.003281 574.566875 576.003281 576.766875 
L 576.003281 622.3 
Q 576.003281 624.5 578.203281 624.5 
z
" style="fill: #ffffff; opacity: 0.8; stroke: #cccccc; stroke-linejoin: miter"/>
    </g>
    <g id="line2d_15">
     <path d="M 580.403281 582.990469 
L 591.403281 582.990469 
L 602.403281 582.990469 
" style="fill: none; stroke: #0000ff; stroke-width: 1.5; stroke-linecap: round"/>
    </g>
    <g id="text_12">
     <!-- one -->
     <g style="fill: #262626" transform="translate(611.203281 586.840469)scale(0.11 -0.11)">
      <defs>
       <path id="Arial-BoldMT-6f" d="M 256 1706 
Q 256 2144 472 2553 
Q 688 2963 1083 3178 
Q 1478 3394 1966 3394 
Q 2719 3394 3200 2905 
Q 3681 2416 3681 1669 
Q 3681 916 3195 420 
Q 2709 -75 1972 -75 
Q 1516 -75 1102 131 
Q 688 338 472 736 
Q 256 1134 256 1706 
z
M 1156 1659 
Q 1156 1166 1390 903 
Q 1625 641 1969 641 
Q 2313 641 2545 903 
Q 2778 1166 2778 1666 
Q 2778 2153 2545 2415 
Q 2313 2678 1969 2678 
Q 1625 2678 1390 2415 
Q 1156 2153 1156 1659 
z
" transform="scale(0.015625)"/>
       <path id="Arial-BoldMT-6e" d="M 3478 0 
L 2600 0 
L 2600 1694 
Q 2600 2231 2544 2389 
Q 2488 2547 2361 2634 
Q 2234 2722 2056 2722 
Q 1828 2722 1647 2597 
Q 1466 2472 1398 2265 
Q 1331 2059 1331 1503 
L 1331 0 
L 453 0 
L 453 3319 
L 1269 3319 
L 1269 2831 
Q 1703 3394 2363 3394 
Q 2653 3394 2893 3289 
Q 3134 3184 3257 3021 
Q 3381 2859 3429 2653 
Q 3478 2447 3478 2063 
L 3478 0 
z
" transform="scale(0.015625)"/>
       <path id="Arial-BoldMT-65" d="M 2381 1056 
L 3256 909 
Q 3088 428 2723 176 
Q 2359 -75 1813 -75 
Q 947 -75 531 491 
Q 203 944 203 1634 
Q 203 2459 634 2926 
Q 1066 3394 1725 3394 
Q 2466 3394 2894 2905 
Q 3322 2416 3303 1406 
L 1103 1406 
Q 1113 1016 1316 798 
Q 1519 581 1822 581 
Q 2028 581 2168 693 
Q 2309 806 2381 1056 
z
M 2431 1944 
Q 2422 2325 2234 2523 
Q 2047 2722 1778 2722 
Q 1491 2722 1303 2513 
Q 1116 2303 1119 1944 
L 2431 1944 
z
" transform="scale(0.015625)"/>
      </defs>
      <use xlink:href="#Arial-BoldMT-6f"/>
      <use xlink:href="#Arial-BoldMT-6e" x="61.083984"/>
      <use xlink:href="#Arial-BoldMT-65" x="122.167969"/>
     </g>
    </g>
    <g id="line2d_16">
     <path d="M 580.403281 598.534844 
L 591.403281 598.534844 
L 602.403281 598.534844 
" style="fill: none; stroke-dasharray: 5.55,2.4; stroke-dashoffset: 0; stroke: #ff0000; stroke-width: 1.5"/>
    </g>
    <g id="text_13">
     <!-- two -->
     <g style="fill: #262626" transform="translate(611.203281 602.384844)scale(0.11 -0.11)">
      <defs>
       <path id="Arial-BoldMT-74" d="M 1981 3319 
L 1981 2619 
L 1381 2619 
L 1381 1281 
Q 1381 875 1398 808 
Q 1416 741 1477 697 
Q 1538 653 1625 653 
Q 1747 653 1978 738 
L 2053 56 
Q 1747 -75 1359 -75 
Q 1122 -75 931 4 
Q 741 84 652 211 
Q 563 338 528 553 
Q 500 706 500 1172 
L 500 2619 
L 97 2619 
L 97 3319 
L 500 3319 
L 500 3978 
L 1381 4491 
L 1381 3319 
L 1981 3319 
z
" transform="scale(0.015625)"/>
       <path id="Arial-BoldMT-77" d="M 1078 0 
L 28 3319 
L 881 3319 
L 1503 1144 
L 2075 3319 
L 2922 3319 
L 3475 1144 
L 4109 3319 
L 4975 3319 
L 3909 0 
L 3066 0 
L 2494 2134 
L 1931 0 
L 1078 0 
z
" transform="scale(0.015625)"/>
      </defs>
      <use xlink:href="#Arial-BoldMT-74"/>
      <use xlink:href="#Arial-BoldMT-77" x="33.300781"/>
      <use xlink:href="#Arial-BoldMT-6f" x="111.083984"/>
     </g>
    </g>
    <g id="line2d_17">
     <path d="M 580.403281 614.079219 
L 591.403281 614.079219 
L 602.403281 614.079219 
" style="fill: none; stroke-dasharray: 1.5,2.475; stroke-dashoffset: 0; stroke: #000000; stroke-width: 1.5"/>
    </g>
    <g id="text_14">
     <!-- three -->
     <g style="fill: #262626" transform="translate(611.203281 617.929219)scale(0.11 -0.11)">
      <defs>
       <path id="Arial-BoldMT-68" d="M 1334 4581 
L 1334 2897 
Q 1759 3394 2350 3394 
Q 2653 3394 2897 3281 
Q 3141 3169 3264 2994 
Q 3388 2819 3433 2606 
Q 3478 2394 3478 1947 
L 3478 0 
L 2600 0 
L 2600 1753 
Q 2600 2275 2550 2415 
Q 2500 2556 2373 2639 
Q 2247 2722 2056 2722 
Q 1838 2722 1666 2615 
Q 1494 2509 1414 2295 
Q 1334 2081 1334 1663 
L 1334 0 
L 456 0 
L 456 4581 
L 1334 4581 
z
" transform="scale(0.015625)"/>
       <path id="Arial-BoldMT-72" d="M 1300 0 
L 422 0 
L 422 3319 
L 1238 3319 
L 1238 2847 
Q 1447 3181 1614 3287 
Q 1781 3394 1994 3394 
Q 2294 3394 2572 3228 
L 2300 2463 
Q 2078 2606 1888 2606 
Q 1703 2606 1575 2504 
Q 1447 2403 1373 2137 
Q 1300 1872 1300 1025 
L 1300 0 
z
" transform="scale(0.015625)"/>
      </defs>
      <use xlink:href="#Arial-BoldMT-74"/>
      <use xlink:href="#Arial-BoldMT-68" x="33.300781"/>
      <use xlink:href="#Arial-BoldMT-72" x="94.384766"/>
      <use xlink:href="#Arial-BoldMT-65" x="133.300781"/>
      <use xlink:href="#Arial-BoldMT-65" x="188.916016"/>
     </g>
    </g>
   </g>
  </g>
 </g>
 <defs>
  <clipPath id="pfa0efb0322">
   <rect x="90" y="86.4" width="558" height="543.6"/>
  </clipPath>
 </defs>
</svg>
